<svg xmlns="http://www.w3.org/2000/svg" viewBox="0 0 16 16" fill="#181717" width="16" height="16">
  <path fill-rule="evenodd" d="M8 .198a8 8 0 0 0-2.534 15.596c.4.074.548-.174.548-.387 0-.19-.007-.693-.01-1.36-2.232.485-2.702-1.076-2.702-1.076-.365-.927-.889-1.175-.889-1.175-.726-.497.055-.487.055-.487.804.057 1.226.825 1.226.825.715 1.223 1.877.87 2.335.665.073-.52.28-.87.508-1.07-1.778-.202-3.644-.889-3.644-3.953 0-.872.31-1.586.824-2.144-.083-.202-.36-1.015.079-2.117 0 0 .67-.215 2.2.82.638-.178 1.318-.266 2-.27.682.004 1.363.092 2 .27 1.526-1.035 2.195-.82 2.195-.82.44 1.102.164 1.915.08 2.117.515.558.824 1.272.824 2.144 0 3.072-1.87 3.747-3.65 3.946.287.248.543.735.543 1.482 0 1.07-.01 1.93-.01 2.193 0 .215.145.466.55.386A8.002 8.002 0 0 0 8 .198"/>
</svg>