<?xml version="1.0" standalone="no"?>
<svg version="1.1" id="Layer_1" xmlns="http://www.w3.org/2000/svg" xmlns:xlink="http://www.w3.org/1999/xlink" x="0px" y="0px" width="595.28px" height="595.28px" viewBox="0 0 595.28 595.28" enable-background="new 0 0 595.28 595.28" xml:space="preserve">
<path id="color_x5F_2" fill="#ca702d" d="M415.643,172.117c0.656-4.106,3.866-15.424,10.017-12.228
	c0.66,0.343,1.836-0.057,2.372-0.59l0.643,0.643c0.946,2.809,0.126,8.982-0.13,10.314c-0.595,3.105-1.997,8.493-4.603,11.893
	c-1.247,1.193-3.147,2.599-5.466,3.034C414.225,184.559,415.241,174.629,415.643,172.117z M368.319,384.821l-0.085-0.846
	l-1.153-0.676c0.052,0.156-0.029,0.352-0.267,0.527c-0.561,0.415-1.36,0.611-2.049,0.549c-3.733-0.335-8.411,4.381-4.9,7.691
	c0.616,0.581,1.215,0.932,1.783,1.101c1.495-0.28,2.661-0.875,3.332-1.299c1.195-1.549,1.722-4.055,1.104-5.931
	C365.898,385.372,367.399,384.771,368.319,384.821z M366.598,383.021c0.006,0,0.009,0.004,0.015,0.004l-0.334-0.195
	c0,0-0.951,0.09-2.143,0.345C365.024,383.013,365.868,382.955,366.598,383.021z M379.423,390.306
	c0.045,0.255-0.167,0.552-0.815,0.815c-1.493,0.608-3.218,2.135-2.89,3.961c0.289,1.608,1.879,2.581,3.469,2.588
	c0.938-0.421,1.51-0.886,1.51-0.886l1.578-2.271c-0.007-0.245-0.032-0.491-0.094-0.737
	C381.787,392.191,380.794,391.048,379.423,390.306z M361.561,374.329l0.291,0.077c-0.093-0.047-0.188-0.092-0.278-0.141
	L361.561,374.329z M326.407,269.499c-0.004,0.007-0.006,0.016-0.01,0.021c0,0.029,0.002,0.058-0.01,0.091
	c-0.058,0.163-0.123,0.323-0.182,0.485c2.305,0.858,4.643,1.571,7.006,2.154C329.7,271.037,327.26,269.911,326.407,269.499z
	 M299.989,365.029c-5.148-0.272-10.254-1.099-15.211-2.522C287.751,365.025,293.523,365.481,299.989,365.029z M201.784,327.261
	c2.604-0.203,5.273-0.845,7.852-1.386L201.784,327.261z M399.561,258.829c-1.868,0.498-3.456,0.81-4.788,0.998
	c2.391-0.025,4.814-0.66,7.141-1.746C401.161,258.356,400.382,258.61,399.561,258.829z M475.946,221.641
	c-0.19,1.194-0.576,3.304-0.718,4.066c-0.773,4.183-1.671,8.343-2.569,12.5c-2.865,13.261-5.941,26.478-9.041,39.686
	c-3.971,16.919-8.016,33.821-12.154,50.701l-11.039,43.903c-1.258,4.854-2.532,9.706-3.881,14.536
	c-0.491,1.758-0.987,3.517-1.538,5.256c-0.148,0.47-0.309,0.936-0.479,1.398l-0.644-0.171c0.63-0.545,0.79-1.384-0.425-1.584
	c-13.042-2.146-25.942-6.347-38.629-9.959c-7.13-2.031-14.243-4.12-21.321-6.324c-3.146-0.98-8.276-1.703-10.948-3.822
	c2.655-7.924,5.827-16.561,6.355-24.93c3.388,2.436,6.982,4.627,10.59,6.746c7.656,4.498,16.637,9.044,25.77,8.281
	c1.381-0.115,2.438-1.673,0.422-1.504c-8.866,0.74-17.869-4.601-25.247-8.935c-8.6-5.054-16.918-10.79-22.26-19.398
	c1.279-1.838,2.503-3.646,3.672-5.384c4.786-7.119,9.133-14.552,13.077-22.168c1.833-3.541,4.673-7.896,5.175-11.956
	c0.192-1.563-2.773-1.219-2.947,0.182c-0.439,3.566-3.045,7.479-4.63,10.61c-3.55,7.014-7.548,13.805-11.823,20.398
	c-8.717,13.441-19.83,29.273-35.152,35.623c-15.119,6.267-33.214,4.437-48.107-2.328c-3.994-2.553-8.264-4.86-11-6.277
	c-6.554-4.481-14.075-10.832-17.235-17.813c0.238-0.17,0.384-0.368,0.348-0.58c-1.634-9.721,7.095-17.017,14.55-21.771
	c7.912,8.232,19.286,15.071,30.449,17.109c8.394,1.532,19.232-0.017,25.836-5.853c5.184-4.58,8.807-11.494,12.477-17.25
	c2.144-3.364,4.241-6.759,6.348-10.146c1.059-1.702,2.122-4.289,3.664-5.621c-0.16,0.05-0.319,0.1-0.479,0.15
	c0.562-0.292,0.861-0.599,0.14-0.648c-3.002-0.208-4.487,3.902-5.75,5.924c-4.136,6.626-8.217,13.289-12.625,19.74
	c-1.751,2.563-3.549,5.151-5.697,7.401c-5.305,5.554-14.4,6.165-21.535,5.165c-9.119-1.279-18.789-6.788-26.189-13.252l0.437,0.037
	c7.604,2.108,17.187-1.805,23.492-5.115c14.511-7.617,24.995-21.256,30.841-36.35c8.469,2.894,17.589,4.067,26.671,4.138
	c2.32,0.108,4.703,0.071,7.111-0.153c2.829-0.146,5.636-0.387,8.399-0.701c5.175-0.589,11.73-2.074,17.104-4.983
	c0.904-0.181,1.258-0.415,2.164-1.303c1.791-1.189,3.387-2.568,4.662-4.169c1.424,2.917,4.09,5.314,6.279,7.568
	c4.259,4.386,8.686,8.513,13.22,12.621c7.834,7.098,15.966,14.305,26.832,15.75c1.242,0.166,3.028-1.572,1.076-1.832
	c-11.421-1.52-19.821-10.239-27.977-17.59c-3.629-3.271-7.101-6.618-10.476-10.142c-2.666-2.782-6.185-5.738-6.921-9.696
	c-0.002-0.009-0.007-0.016-0.009-0.023c0.02-0.045,0.037-0.092,0.056-0.137c4.159-0.036,8.375-1.476,12.303-3.654
	c8.039-4.46,14.233-13.381,14.217-22.69c-0.018-9.493-7.774-15.933-15.79-19.807c1.819-1.483,2.561-6.095,3.105-8.959
	C430.208,211.56,452.972,217.829,475.946,221.641z M432.201,270.639c0.571,0.519,3.174-0.584,2.73-0.986
	c-5.504-4.994-13.063-3.818-19.869-3.175c-0.747,0.07-3.161,1.345-1.256,1.164C420.21,267.037,427.027,265.944,432.201,270.639z
	 M436.746,283.708c-3.566-4.831-8.509-7.674-14.549-5.896c-1.766,0.52-1.259,2.468,0.521,1.943
	c4.902-1.442,8.586,1.444,11.371,5.218C434.857,286.013,437.622,284.896,436.746,283.708z M436.874,337.877
	c0.135-1.306-2.799-0.8-2.912,0.307c-1.57,15.303-15.977,33.004-32.565,31.641c-1.229-0.101-3.042,1.665-1.078,1.826
	C418.486,373.144,435.111,355.054,436.874,337.877z M445.524,321.87c-0.001-3.606-0.082-7.195-0.635-10.766
	c-0.206-1.325-3.111-0.597-2.898,0.777c0.526,3.39,0.599,6.791,0.6,10.215C442.591,323.607,445.524,323.155,445.524,321.87z
	 M369.501,273.756c3.517-0.491,7.291-1.345,10.727-2.745C377.919,271.48,374.553,272.283,369.501,273.756z M198.561,327.829
	l0.014,0.7c0.112-0.082,0.247-0.154,0.393-0.219c-0.001-0.179,0.944-0.606,1.642-0.843L198.561,327.829z M263.209,309.653
	c-0.023-0.025-0.047-0.05-0.07-0.075c0.001,0.03,0.002,0.062,0.003,0.092C263.163,309.664,263.186,309.658,263.209,309.653z
	 M255.216,315.231c-0.768,0.564-1.504,1.109-2.155,1.598c-0.929,0.696-1.749,1.827-2.462,3.148
	C251.943,318.266,253.526,316.682,255.216,315.231z M246.051,333.173c-0.199-0.48,0.05-0.892,0.473-1.159
	c-0.032-0.366-0.049-0.729-0.054-1.087c-0.088,0.039-0.184,0.08-0.295,0.121c-9.471,3.5-18.861,0.175-24.409-6.803
	c-2.815,1.291-7.147,1.48-9.69,1.975c-3.607,0.702-7.333,1.646-11.028,2.031c0.07,0.083,0.101,0.188,0.069,0.321
	c-1.548,6.587-3.679,18.977,1.214,24.989c0.261-0.016,0.495,0.018,0.654,0.117c2.89,1.812,6.902,1.862,10.407,1.832l27.283-1.187
	c6.863-0.663,13.734-1.895,19.885-4.496C254.563,345.246,248.687,339.519,246.051,333.173z"></path>
<path id="color_x5F_1" d="M344.903,218.932c0.318-0.412,0.879-0.623,1.413-0.712c0.048-0.069,0.091-0.144,0.13-0.214
	c0.417-0.751,3.302-1.143,2.678-0.018c-0.657,1.185-2.198,1.645-3.463,1.689C345.253,219.692,344.489,219.468,344.903,218.932z
	 M309.71,196.87c-3.197-0.55-6.062,0.863-9.099,1.601c-1.81,0.439-1.255,2.462,0.543,2.025c2.479-0.603,4.958-1.934,7.562-1.485
	C310.165,199.26,311.649,197.204,309.71,196.87z M313.819,233.03c-0.639,0.018-1.492,0.23-1.926,0.742
	c-1.2,1.42-3.059,4.624-5.213,3.957c-0.652-0.202-1.455,0.004-2.039,0.319c-0.293,0.159-0.965,0.741-0.303,0.946
	c4.518,1.399,7.614-2.221,10.217-5.297C314.995,233.178,314.181,233.021,313.819,233.03z M158.101,254.864
	c0.257,13.352-0.428,26.6-2.469,39.805c-0.203,1.311,2.74,0.849,2.916-0.293c2.041-13.204,2.727-26.453,2.469-39.805
	C160.99,253.192,158.079,253.749,158.101,254.864z M62.805,300.632c9.188-6.973,9.613,2.579,16.534,0.725
	c1.032-0.276,2.096-0.955,2.902-1.637c3.604-3.047,6.867-1.792,10.339,0.552c0.796,0.537,3.475-0.625,2.303-1.416
	c-2.529-1.707-5.514-3.802-8.775-3.4c-3.047,0.375-6.853,5.646-9.927,3.442c-5.469-3.921-10.402-2.785-15.704,1.238
	C59.155,301.139,62.061,301.196,62.805,300.632z M62.805,313.798c9.189-6.973,9.612,2.582,16.534,0.727
	c1.032-0.276,2.096-0.955,2.902-1.637c3.604-3.047,6.867-1.795,10.339,0.55c0.796,0.537,3.475-0.625,2.303-1.416
	c-2.529-1.707-5.514-3.802-8.775-3.4c-3.048,0.376-6.851,5.649-9.927,3.443c-5.468-3.922-10.402-2.786-15.704,1.237
	C59.155,314.305,62.061,314.362,62.805,313.798z M94.883,384.432c-2.529-1.707-5.514-3.8-8.775-3.398
	c-3.047,0.375-6.853,5.646-9.927,3.441c-5.468-3.922-10.403-2.786-15.704,1.239c-1.321,1.004,1.585,1.061,2.328,0.496
	c9.187-6.977,9.613,2.579,16.534,0.725c1.032-0.276,2.096-0.955,2.902-1.637c3.604-3.046,6.867-1.794,10.339,0.55
	C93.377,386.385,96.055,385.223,94.883,384.432z M94.883,397.598c-2.529-1.707-5.514-3.8-8.775-3.398
	c-3.047,0.375-6.853,5.646-9.927,3.441c-5.468-3.922-10.403-2.786-15.704,1.239c-1.321,1.004,1.585,1.061,2.328,0.496
	c9.187-6.977,9.613,2.579,16.534,0.725c1.032-0.276,2.096-0.955,2.902-1.637c3.604-3.046,6.867-1.794,10.339,0.55
	C93.377,399.551,96.055,398.389,94.883,397.598z M532.987,163.324c-3.084,9.905-4.731,20.306-7.02,30.418
	c-2.366,10.452-5.412,20.707-7.888,31.13c-6.569,27.663-12.37,55.517-18.246,83.333c-7.021,33.242-13.916,66.512-20.716,99.8
	c-3.307,16.188-7.545,32.534-9.891,48.922c0.287,0.197,0.436,0.521,0.283,0.992c-2.441,7.567-6.007,15.587-13.813,18.815
	c-5.532,2.288-11.908,1.15-17.577-0.052c-0.214-0.009-0.366-0.038-0.415-0.088c-0.038-0.008-0.078-0.016-0.116-0.024
	c-12.906-2.76-25.608-5.732-38.299-9.414c-18.265-5.299-36.495-10.872-54.44-17.18c-12.385-4.354-28.184-10.164-24.283-26.451
	c3.063-12.79,7.52-25.335,11.348-37.908c2.421-7.954,4.848-15.91,7.104-23.913c0.875-3.105,2.235-6.61,2.756-9.984
	c-5.068,4.635-10.693,8.373-16.938,10.266c-8.104,2.457-16.532,3.483-24.847,3.044c-5.148-0.272-10.254-1.099-15.211-2.522
	c-5.859-1.684-11.513-4.182-16.785-7.522c-1.898-1.202-3.937-2.57-5.989-4.074c-10.167,4.402-22.25,5.301-33.153,5.772
	c-5.848,0.253-11.739,0.66-17.594,0.427c-2.859-0.114-6.152-0.141-8.923-1.219c-0.595,0.182-1.238,0.227-1.544-0.032
	c-0.04-0.033-0.07-0.076-0.109-0.11c-1.998,1.348-3.988,2.614-6.467,2.771c-1.857,14.564-7.828,28.348-21.32,35.932
	c-21.027,11.82-45.779,9.68-69,9.301c-0.781,0.213-1.635,0.179-1.634-0.225c0.022-7.305,0.284-14.604,0.307-21.908
	c0.002-0.73,1.485-1.191,2.329-1.123c0.294-0.129,0.611-0.201,0.896-0.17c5.853,0.639,12.659,1.236,19.535,1.147
	c0.789-0.575,2.508-0.744,2.509-0.169c0,0.035,0.001,0.07,0.001,0.105c15.098-0.587,30.01-4.89,35.379-19.852
	c0.378-1.055,3.307-1.416,2.91-0.313c-5.825,16.234-21.955,21.114-38.277,21.885c0.027,6.54,0.132,13.079,0.142,19.619
	c0,0.148-0.066,0.283-0.171,0.408c17.707,0.186,36.186-1.495,48.769-13.248c15.079-14.083,16.947-35.002,14.626-54.426
	c-1.464-0.647-2.861-1.729-4.13-2.553c-1.641-1.064-3.663-1.974-4.879-3.546c-2.43-3.141-0.767-6.721,2.76-8.053
	c1.301-0.491,2.582-0.691,3.809-0.638c-2.702-8.188-9.282-16.775-17.449-19.633c-3.722,1.711-8.088,3.854-9.699,7.641
	c0.397,0.228,0.481,0.631-0.219,1.146c-3.283,2.419-6.713,1.567-9.813-0.762c-4.711-3.539-6.262-9.314-7.431-14.832
	c-5.296-0.674-10.582-0.906-15.871-0.936c-0.034,5.872-0.259,11.74-0.293,17.61c17.678-0.813,36.393,0.059,39.685,19.702
	c0.044,0.261-0.074,0.497-0.278,0.697c0.833,0.012,1.642,0.047,2.402,0.101c4.639,0.326,8.041,2.698,5.015,7.358
	c-0.681,1.049-1.559,1.785-2.557,2.304c3.235,0.897,5.013,3.173,2.557,6.954c-0.369,0.568-0.798,1.041-1.27,1.442
	c2.688,0.833,4.757,2.771,2.809,6.049c-2.693,4.532-7.188,4.312-11.842,4.197c-0.206,0.439-0.72,0.853-1.406,0.908
	c-2.169,0.174-5.114-0.127-6.556-2.046c-1.402-1.867-1.344-4.459,0.442-6.148c0.123-0.116,0.254-0.22,0.382-0.328
	c-1.533-0.293-2.987-0.915-3.787-2.158c-1.322-2.058-0.901-4.448,1.003-6.069c0.567-0.483,1.2-0.894,1.874-1.253
	c-1.178-0.354-2.239-0.943-2.877-1.936c-1.322-2.057-0.902-4.447,1.003-6.069c2.597-2.211,6.463-3.05,10.181-3.258
	c-3.146-18.661-20.789-19.59-37.708-18.765c-0.688,0.268-1.559,0.33-1.864,0.098c-7.143,0.396-14.056,0.999-19.576,0.596
	c-0.1-0.008-0.184-0.021-0.264-0.036c-0.797,0.563-2.49,0.725-2.49,0.155c0-6.377,0-12.754,0-19.131c0-0.269,0.203-0.5,0.5-0.684
	c-0.557-0.356,1.022-1.381,1.84-1.385c12.916-0.059,25.732-1.054,38.59,0.311c-0.047-0.229-0.094-0.457-0.141-0.684
	c-3.441-16.604-4.759-33.627-3.033-50.531c0.882-8.642,0.712-19.887,6.37-27.056c5.075-6.431,14.636-5.967,17.686,2.363
	c0.008,0.004,0.018,0.006,0.025,0.011c26.404,15.709,56.857,20.73,87.194,21.14c0.687-0.312,1.559-0.311,1.858,0.26
	c4.205,8.011,4.716,17.782,3.991,26.654c-0.344,4.193-0.405,14.216-4.673,16.89c-0.256,0.16-0.571,0.234-0.892,0.248
	c-0.416,0.244-0.931,0.438-1.274,0.44c-3.44,0.018-6.808,0.249-10.136,1.043c0.397,2.199,1.031,4.326,1.838,6.394
	c0.421-0.055,0.837,0.019,1.113,0.277c-0.088-0.435,0.23-0.994,1.063-1.274c12.693-4.271,17.755,9.625,18.305,19.946
	c0.669-0.442,2.081-0.824,2.426-0.439c0.815,0.91,1.696,1.816,2.614,2.715c0.676-0.316,1.6-0.537,2.007-0.271
	c8.23,5.363,21.078-1.288,27.928-6.093c11.795-8.274,20.132-20.075,25.067-33.513c-0.39-0.16-0.177-0.438,0.258-0.693
	c0.035-0.101,0.076-0.199,0.111-0.3c0.023-0.067,0.07-0.131,0.125-0.191c3.288-6.68,2.208-15.751,9.946-18.858
	c-0.147-0.063-0.281-0.148-0.39-0.268c-8.742-9.58-18.725,1.643-28.745-2.807c-6.845-3.039-11.368-11.533-14.154-18.313
	c-3.701,0.087-6.962-5.138-7.834-8.153c-1.474-5.103-1.922-13.19,0.976-18.118c-0.757,0.209-1.565,0.13-1.592-0.396
	c-0.551-11.199,2.57-21.336,9.68-28.787c0.176-0.287,0.354-0.568,0.536-0.842c1.03-1.545,2.711-2.67,4.472-3.491
	c1.436-1.017,2.971-1.96,4.625-2.808c15.73-8.067,35.58-11.388,51.261-1.072c10.807,7.109,14.581,18.3,22.254,28.098
	c1.227,1.566,2.539,3.221,3.928,4.873c6.148-17.416,9.865-35.804,14.931-53.543c2.823-9.885,6.77-27.649,19.834-27.988
	c20.825-0.54,42.247,6.237,61.918,12.261c17.155,5.253,34.35,10.44,51.717,14.943c0.134,0.034,0.234,0.078,0.321,0.126
	C536.643,147.92,535.539,155.124,532.987,163.324z M170.406,351.049c-2.144,0.557-4.581,0.487-6.813,0.4
	c-0.414,0.083-0.824,0.175-1.221,0.291c-0.103,0.03-0.211,0.064-0.321,0.102c-0.265,0.249-0.638,0.438-1.091,0.469
	c-0.019,0.001-0.041,0.001-0.06,0.003c-1.607,0.786-3.191,2.161-2.303,4.047c0.813,1.729,2.521,2.308,4.301,2.274
	c0.35-0.486,1.065-0.951,1.712-0.94c3.044,0.051,7.427,0.982,8.994-2.438C174.897,352.434,172.991,351.188,170.406,351.049z
	 M168.781,342.707c-2.7-0.063-5.672-0.025-8.302,0.617c-1.712,0.418-4.931,1.198-4.803,3.699c0.128,2.51,2.648,3.252,4.774,3.281
	c0.182-0.072,0.364-0.142,0.55-0.206c0.382-0.404,0.985-0.745,1.539-0.736c0.321,0.005,0.69,0.026,1.09,0.055
	c2.3-0.415,4.708-0.457,6.887-0.415c0.037,0.001,0.075,0.005,0.111,0.006c0.451-0.215,0.842-0.495,1.133-0.872
	C174.354,344.769,172.612,342.798,168.781,342.707z M160.479,334.066c-1.712,0.419-4.931,1.198-4.803,3.7
	c0.136,2.66,2.958,3.337,5.152,3.281c0.349-0.486,1.064-0.951,1.711-0.941c2.425,0.036,7.491,1.019,9.221-1.229
	c2.594-3.368,0.853-5.336-2.979-5.428C166.081,333.386,163.109,333.424,160.479,334.066z M125.411,293.321
	c-6.534,0.045-13.072,0.325-19.637,0.396c0,6.011,0,12.022,0,18.033c0.311-0.15,0.65-0.24,0.947-0.219
	c5.222,0.382,11.661-0.093,18.386-0.457c0.05-5.903,0.278-11.804,0.295-17.707C125.402,293.353,125.409,293.337,125.411,293.321z
	 M125.089,403.114c-0.014-6.63-0.121-13.259-0.143-19.888c-6.818,0.128-13.559-0.383-19.495-1.015
	c-0.047,6.798-0.269,13.592-0.292,20.39c0.168-0.046,0.313-0.075,0.409-0.073C111.651,402.625,118.288,402.977,125.089,403.114z
	 M308.227,213.556c-0.072-0.017-0.144-0.025-0.216-0.043c-0.731-0.176-0.614-0.545-0.188-0.878
	c-1.306-2.842-3.018-5.614-5.519-7.377c-0.183-0.129-0.073-0.324,0.186-0.52c-0.1,0.001-0.193-0.007-0.278-0.024
	c-0.077,0.118-0.165,0.25-0.278,0.413c-0.193,0.471-0.35,0.952-0.471,1.446c-0.196,0.876-0.377,1.752-0.476,2.645
	c-0.254,2.278-0.388,4.583-0.294,6.877c0.145,3.538,1.052,8.313,3.786,10.804c4.415,4.021,6.271-2.371,5.975-5.27
	c-0.21-2.05-0.642-4.068-1.381-5.997C308.812,214.951,308.526,214.254,308.227,213.556z M311.187,212.264
	c5.53,1.02,11.066,0.276,16.654-0.176c3.041-0.246,6.091,0.057,9.133,0.163c-5.884-1.598-10.91-5.341-14.42-10.91
	c-2.666-4.23-4.355-8.54-5.555-13.378c-0.734-2.962-1.598-6.572-4.6-8.073c-4.36-2.18-9.118-0.584-11.383,3.65
	c-0.25,0.466-1.037,0.744-1.723,0.768c-0.053,1.105-2.48,1.673-2.946,0.443c-0.229-0.607-0.485-1.268-0.948-1.743
	c-0.652,0.582-1.117,1.4-1.503,2.166c-0.913,1.813-1.776,3.847-2.036,5.878c-0.06,0.469-0.457,0.815-0.939,1.011
	c-0.163,1.712-0.24,3.428-0.275,5.147c1.223,0.912,2.193,2.179,3.254,3.26c0.729,0.743-2.014,1.811-2.697,1.113
	c-0.201-0.205-0.398-0.421-0.596-0.639c0,0.104-0.001,0.207-0.001,0.311c-0.001,0.332-0.56,0.592-1.188,0.748
	c1.955,1.861,3.549,5.203,4.273,6.658c0.167,0.336-0.129,0.676-0.59,0.913c0.127,0.077,0.227,0.182,0.281,0.321
	c0.604,1.535,1.295,3.782,1.757,6.218c0.78,0,1.561,0,2.341,0c0.067,0,0.166,0.005,0.27,0.017c-0.052-1.888,0.059-3.766,0.254-5.522
	c0.376-3.376,1.913-9.734,6.704-7.023c0.182,0.103,0.057,0.29-0.223,0.485c0.215,0.003,0.402,0.041,0.531,0.132
	C307.466,205.927,309.653,208.934,311.187,212.264z M297.061,180.829c0,0-0.032,0.022-0.091,0.066
	c0.043,0.018,0.082,0.043,0.123,0.063L297.061,180.829z M354.92,223.203c-0.364,0.274-0.738,0.536-1.117,0.777l0.758-0.151
	C354.561,223.829,354.712,223.598,354.92,223.203z M358.228,245.938c-0.497-0.029-0.954-0.051-1.357-0.066
	c0.018,0.105,0.041,0.21,0.057,0.315C357.357,246.089,357.792,246.007,358.228,245.938z M394.772,259.827
	c2.391-0.025,4.814-0.66,7.141-1.746c-0.752,0.275-1.531,0.529-2.353,0.748C397.692,259.327,396.104,259.639,394.772,259.827z
	 M359.284,175.845l3.875,5.519C361.938,179.46,360.664,177.605,359.284,175.845z M303.451,167.843
	c0.069-0.009,0.109-0.014,0.109-0.014s4.666-2.246,10.542-4.401c-1.835,0.567-3.65,1.235-5.432,2.022
	C306.909,166.229,305.159,167.004,303.451,167.843z M288.862,226.427c0.67,0.634,1.216,0.892,1.66,0.889
	c0.187-0.092,0.393-0.16,0.607-0.198c0.846-0.592,1.152-2.396,1.254-3.758c0.32-4.33-0.309-8.646-1.899-12.687
	c-0.14-0.355,0.155-0.695,0.603-0.933c-0.127-0.072-0.229-0.171-0.294-0.302c-0.241-0.486-4.04-7.283-4.574-6.235
	c-0.897,1.761-1.333,3.514-1.517,5.472c-0.35,3.715-0.758,8.439,0.657,12.02C286.165,222.734,287.243,224.896,288.862,226.427z
	 M326.407,269.499c-0.004,0.007-0.006,0.016-0.01,0.021c0,0.029,0.002,0.058-0.01,0.091c-0.058,0.163-0.123,0.323-0.182,0.485
	c2.305,0.858,4.643,1.571,7.006,2.154c10.322,2.543,21.124,2.655,31.747,1.967c1.425-0.093,2.957-0.24,4.542-0.462
	c3.517-0.491,7.291-1.345,10.727-2.745c4.896-1.998,9.101-5.111,10.864-9.893c0.004-0.01,0.013-0.019,0.017-0.028
	c-2.378-0.337-4.713-1.18-6.939-2.674c-7.631-5.121-18.439-13.336-28.155-10.332c-0.987,0.305-1.52-0.067-1.499-0.54
	c-0.252-0.074-0.432-0.221-0.466-0.461c-1.063-7.642-6.659-13.883-6.175-21.821c0.041-0.655,1.156-0.944,1.637-1.021
	c2.838-0.454,7.418-4.72,6.364-8.053c-1.501-4.747-8.249-3.671-10.128,0.324c-0.43,0.914-3.335,1.208-2.713-0.115
	c0.683-1.452,1.921-2.668,3.412-3.567h-0.178c-0.229,0.131-0.502,0.222-0.806,0.241c-0.265,0.017-0.524,0.017-0.788,0.025
	c-0.037,0.01-0.061,0.025-0.101,0.034c-6.237,1.399-12.519,0.048-18.82,0.622c-4.628,0.422-9.204,0.887-13.775,0.417
	c1.114,3.001,1.666,6.113,1.37,8.699c-0.52,4.53-6.576,9.646-10.913,5.696c-3.214-2.928-4.405-7.226-4.649-11.56
	c-0.458,0.266-1.061,0.407-1.524,0.407c-0.302,0-0.602,0-0.903,0c0.374,2.516,0.439,5.125-0.119,7.318
	c0.817-0.22,1.811-0.007,1.865,0.869c0.119,1.913,0.149,4.008,0.854,5.817c0.796,2.048,2.098,1.764,3.826,0.851
	c1.453-0.766,3.029,0.774,1.281,1.697c-2.153,1.136-5.641,2.163-7.299-0.364c-1.227-1.869-1.405-4.24-1.525-6.473
	c-0.327,0.516-0.727,0.97-1.194,1.363c3.61,8.872,10.192,20.275,21.162,17.741c8.449-1.952,15.104-3.949,21.628,3.2
	c0.34,0.373,0.268,0.752-0.01,1.059c0.488,0.112,0.244,0.588-0.896,0.925C328.425,253.337,328.933,264.462,326.407,269.499z
	 M263.209,309.653c-0.023-0.025-0.047-0.05-0.07-0.075c0.001,0.03,0.002,0.062,0.003,0.092
	C263.163,309.664,263.186,309.658,263.209,309.653z M245.473,295.85c0.131,0.25,0.259,0.502,0.392,0.751
	c0.19,0.358-0.125,0.716-0.612,0.957c-0.27,0.985-1.988,1.399-2.671,0.908c-6.685,0.452-12.995-0.168-19.236-1.961
	c-0.63,0.115-1.238,0.04-1.362-0.359c-0.009-0.026-0.019-0.053-0.026-0.08c-0.884-0.278-1.769-0.576-2.651-0.902
	c-0.861,7.275,5.491,13.138,12.421,14.619c1.646,0.352-0.857,1.767-1.775,1.57c-4.171-0.892-8.211-3.226-10.803-6.488
	c0.157,5.946,3.507,11.356,8.73,14.446c0.494,0.292-1.964,1.473-2.721,1.025c-1.468-0.868-2.777-1.917-3.919-3.099
	c3.676,9.535,13.199,16.912,23.884,12.963c0.44-0.163,0.97-0.184,1.357-0.109c0.164-3.75,1.775-7.127,4.119-10.113
	c1.345-1.712,2.928-3.296,4.617-4.746c1.771-1.521,3.656-2.896,5.502-4.12c-0.284-0.126-0.479-0.355-0.482-0.711
	c-0.104-8.193-3.674-23.742-14.97-19.941c-0.576,0.194-0.992,0.12-1.253-0.069C245.026,292.073,245.547,293.932,245.473,295.85z
	 M192.166,321.569c1.522,0.755,2.866,1.967,3.925,3.582c0.171,0.262,0.024,0.526-0.271,0.75c0.116,0.038,0.211,0.095,0.271,0.176
	c1.066,1.436,1.754,3.139,1.706,4.857c0.145-0.69,0.29-1.356,0.433-1.962c0.039-0.164,0.166-0.313,0.345-0.443
	c0.112-0.082,0.247-0.154,0.393-0.219c-0.001-0.179,0.944-0.606,1.642-0.843c0.273-0.093,0.511-0.158,0.633-0.164
	c0.181-0.01,0.362-0.029,0.543-0.043c2.604-0.203,5.273-0.845,7.852-1.386c0.432-0.091,0.86-0.179,1.286-0.261
	c2.194-0.422,4.389-0.848,6.573-1.321c0.896-0.194,1.795-0.382,2.683-0.612c0.384-0.1,1.028-0.527,0.408-0.011
	c0.106-0.089,0.312-0.173,0.56-0.246c-2.615-3.616-4.245-8.104-4.409-13.085c-0.005-0.16,0.081-0.307,0.222-0.438
	c-0.686-2.35-0.891-4.864-0.514-7.428c0.038-0.26,0.4-0.492,0.854-0.655c-1.052-2.404-1.357-5.127-0.561-8.039
	c0.247-0.905,1.864-1.188,2.602-0.882c0.596,0.247,1.191,0.46,1.786,0.685c-0.751-2.126-1.563-4.23-2.229-6.386
	c-0.274-0.891,2.612-1.703,2.898-0.777c0.873,2.828,1.992,5.568,2.898,8.383c5.773,1.748,11.59,2.441,17.772,2.091
	c0.018-0.138,0.021-0.274,0.032-0.412c-2.19-4.205-4.083-8.571-4.779-13.296c-0.154-1.049,2.143-1.709,2.753-1.064
	c3.337-0.821,6.726-1.159,10.16-1.244c0.061-0.181,0.229-0.374,0.542-0.57c1.687-1.058,2.131-4.91,2.472-6.642
	c0.646-3.282,1.09-6.61,1.26-9.952c0.41-8.073,0.083-16.836-3.682-24.176c-0.088,0.015-0.175,0.024-0.258,0.023
	c-29.568-0.384-59.344-5.123-85.388-19.633c3.228,10.398,3.029,22.567,3.128,33.066c0.059,6.332,0.119,12.679-0.079,19.009
	c-0.163,5.199-0.136,10.771-1.781,15.767c-0.226,0.685-2.99,0.979-2.848,0.547c1.884-5.719,1.705-12.339,1.792-18.294
	c0.085-5.77,0.104-11.549,0.004-17.318c-0.205-11.86,0.071-25.767-4.908-36.786c-0.026-0.058,0.014-0.128,0.093-0.203
	c-2.96-5.035-9.255-5.377-12.286,0.324c-1.65,3.104-2.663,6.487-3.321,9.934c-1.29,6.757-1.886,13.784-2.272,20.644
	c-0.659,11.696-0.184,23.444,1.71,35.015c0.612,3.738,1.228,7.556,2.05,11.303c0.278,0.103,0.272,0.276,0.105,0.469
	c0.406,1.81,0.858,3.604,1.393,5.359c0.869,2.861,5.669,12.593,10.403,10.519c1.669-3.969,6.371-6.277,10.03-8.045
	c0.553-0.267,1.108-0.532,1.665-0.797c-0.074-0.661,1.492-1.506,2.309-1.235c0.06,0.02,0.117,0.047,0.177,0.067
	c4.217-1.948,8.531-3.774,12.896-5.243c7.426-2.498,15.042-4.212,22.604-6.22c6.781-1.799,13.51-3.506,20.572-3.397
	c1.383,0.021-1.35,1.102-1.904,1.094c-7.588-0.117-14.695,2.169-21.976,3.974c-6.144,1.522-12.356,2.962-18.328,5.085
	c-4.261,1.516-8.477,3.303-12.605,5.187C182.951,303.354,189.784,312.666,192.166,321.569z M192.685,333.675
	c0.368,0.213,0.766,0.456,1.176,0.647c0.028-0.018,0.047-0.032,0.077-0.051c0.09-0.112,0.181-0.225,0.271-0.337
	c0.208-0.305,0.367-0.633,0.479-0.983c0.575-2.077-0.045-4.109-1.305-5.804c-0.186-0.25-0.038-0.515,0.267-0.74
	c-0.118-0.039-0.21-0.1-0.267-0.186c-0.666-1.017-1.85-2.366-3.209-3.276c-0.405-0.026-0.739-0.183-0.865-0.501
	c-1.25-0.609-2.583-0.753-3.77,0.117c-2.266,1.662-2.053,4.535-0.06,6.363C187.513,330.79,190.302,332.298,192.685,333.675z
	 M199.218,354.097c-3.775-5.271-3.037-14.545-1.781-21.333c-0.07,0.188-0.13,0.377-0.223,0.563c-0.54,1.08-1.716,2.057-2.982,2.455
	c0.725,6.597,0.92,13.652,0.227,20.595C196.296,356.232,197.73,355.108,199.218,354.097z M240.675,354.324
	c6.863-0.663,13.734-1.895,19.885-4.496c-5.997-4.582-11.873-10.31-14.509-16.655c-0.199-0.48,0.05-0.892,0.473-1.159
	c-0.032-0.366-0.049-0.729-0.054-1.087c-0.088,0.039-0.184,0.08-0.295,0.121c-9.471,3.5-18.861,0.175-24.409-6.803
	c-2.815,1.291-7.147,1.48-9.69,1.975c-3.607,0.702-7.333,1.646-11.028,2.031c0.07,0.083,0.101,0.188,0.069,0.321
	c-1.548,6.587-3.679,18.977,1.214,24.989c0.261-0.016,0.495,0.018,0.654,0.117c2.89,1.812,6.902,1.862,10.407,1.832
	c0.59-0.006,1.168-0.012,1.722-0.014c4.403-0.016,8.802-0.208,13.2-0.398C232.317,354.926,236.493,354.728,240.675,354.324z
	 M325.562,359.394c15.322-6.35,26.436-22.182,35.152-35.623c4.275-6.594,8.273-13.385,11.823-20.398
	c1.585-3.131,4.19-7.044,4.63-10.61c0.174-1.4,3.14-1.745,2.947-0.182c-0.502,4.06-3.342,8.415-5.175,11.956
	c-3.944,7.616-8.291,15.049-13.077,22.168c-1.169,1.738-2.393,3.546-3.672,5.384c5.342,8.608,13.66,14.345,22.26,19.398
	c7.378,4.334,16.381,9.675,25.247,8.935c2.016-0.169,0.959,1.389-0.422,1.504c-9.133,0.763-18.113-3.783-25.77-8.281
	c-3.607-2.119-7.202-4.311-10.59-6.746c-0.528,8.369-3.7,17.006-6.355,24.93c2.672,2.119,7.802,2.842,10.948,3.822
	c7.078,2.204,14.191,4.293,21.321,6.324c12.687,3.612,25.587,7.813,38.629,9.959c1.215,0.2,1.055,1.039,0.425,1.584
	c-0.377,0.327-0.924,0.549-1.444,0.463c-13.63-2.244-27.112-6.608-40.363-10.408c-7.294-2.091-14.583-4.213-21.815-6.509
	c-2.402-0.763-5.859-1.372-8.409-2.656c-0.093-0.047-0.188-0.092-0.278-0.141c-0.304-0.163-0.585-0.343-0.855-0.53
	c-0.771,0.142-1.531,0.078-1.408-0.294c2.811-8.499,6.492-17.976,6.774-26.999c0.012-0.379,0.504-0.67,1.079-0.846
	c-2.134-1.631-4.161-3.379-6.035-5.289c-0.645,2.849-1.645,5.705-2.372,8.466c-2.074,7.87-4.151,15.739-6.208,23.614
	c-2.093,8.016-4.184,16.034-6.179,24.076c-0.711,2.865-1.426,5.731-2.064,8.614c-0.19,0.858-0.387,1.718-0.537,2.584
	c-0.024,0.138-0.038,0.237-0.05,0.332c4.273,0.655,8.672,2.501,12.792,3.673c9.828,2.798,19.667,5.562,29.527,8.245
	c11.126,3.027,22.271,6.006,33.49,8.669c6.917,1.643,14.402,3.964,21.577,4.055c0.006,0,0.01,0.001,0.016,0.001
	c4.949-17.601,8.807-35.548,12.879-53.362c6.461-28.261,12.729-56.564,18.956-84.877c7.126-32.401,14.174-64.82,21.24-97.234
	c2.291-10.511,4.576-21.021,6.905-31.523c0.635-2.862,1.268-5.726,1.932-8.581c0.086-0.37,0.148-0.863,0.244-1.356
	c-27.3-5.71-54.611-11.384-81.854-17.366c-3.24-0.712-6.482-1.418-9.711-2.185c-7.836,23.685-15.501,47.456-22.376,71.438
	c-0.094,0.328-0.602,0.59-1.165,0.739c1.087,0.804,2.2,1.534,3.343,2.155c2.541,1.381,5.879,1.752,8.593,2.773
	c0.689,0.26,1.389,0.541,2.091,0.839c0.124-0.11,0.285-0.217,0.497-0.313c-1.029,0.471,0.046-1.102,0.316-2.01
	c0.276-0.925,0.55-1.85,0.809-2.779c0.385-1.379,0.764-2.76,1.127-4.144c0.258-0.979,1.428-1.28,2.309-1.072
	c22.92,5.414,45.951,11.833,69.193,15.729c0.69-0.467,1.84-0.603,2.264,0.022c1.286,1.896-0.896,7.777-1.286,9.705
	c-1.644,8.127-3.462,16.219-5.299,24.304c-7.021,30.907-14.448,61.728-22.112,92.481c-3.031,12.163-6.071,24.329-9.347,36.429
	c-0.577,2.133-2.023,13.333-5.388,13.388c-1.848,0.029-1.42-1.772-0.023-2.025c-1.086,0.185-1.216,1.191-0.795,0.07
	c0.023-0.063,0.043-0.129,0.065-0.192c0.17-0.463,0.33-0.929,0.479-1.398c0.551-1.739,1.047-3.498,1.538-5.256
	c1.349-4.83,2.623-9.682,3.881-14.536c0.313-1.206,0.63-2.41,0.94-3.617c3.45-13.406,6.802-26.84,10.099-40.286
	c4.139-16.88,8.184-33.782,12.154-50.701c3.1-13.208,6.176-26.425,9.041-39.686c0.898-4.157,1.796-8.317,2.569-12.5
	c0.142-0.763,0.527-2.872,0.718-4.066c-22.975-3.812-45.738-10.081-68.396-15.486c-0.545,2.864-1.286,7.476-3.105,8.959
	c8.016,3.874,15.772,10.313,15.79,19.807c0.017,9.31-6.178,18.23-14.217,22.69c-3.928,2.179-8.144,3.618-12.303,3.654
	c-0.019,0.045-0.036,0.092-0.056,0.137c0.002,0.008,0.007,0.015,0.009,0.023c0.736,3.958,4.255,6.914,6.921,9.696
	c3.375,3.523,6.847,6.871,10.476,10.142c8.155,7.351,16.556,16.07,27.977,17.59c1.952,0.26,0.166,1.998-1.076,1.832
	c-10.866-1.445-18.998-8.652-26.832-15.75c-4.534-4.108-8.961-8.235-13.22-12.621c-2.189-2.254-4.855-4.651-6.279-7.568
	c-1.275,1.601-2.871,2.979-4.662,4.169c-0.695,0.462-1.417,0.897-2.164,1.303c-5.373,2.909-11.929,4.395-17.104,4.983
	c-2.764,0.314-5.57,0.555-8.399,0.701c-2.359,0.123-4.733,0.172-7.111,0.153c-9.082-0.07-18.202-1.244-26.671-4.138
	c-5.846,15.094-16.33,28.732-30.841,36.35c-6.306,3.311-15.889,7.224-23.492,5.115c-0.2-0.056-0.399-0.111-0.597-0.175
	c0.053,0.046,0.107,0.092,0.16,0.138c7.4,6.464,17.07,11.973,26.189,13.252c7.135,1,16.23,0.389,21.535-5.165
	c2.148-2.25,3.946-4.839,5.697-7.401c4.408-6.451,8.489-13.114,12.625-19.74c1.263-2.021,2.748-6.132,5.75-5.924
	c0.722,0.05,0.422,0.356-0.14,0.648c0.16-0.051,0.319-0.101,0.479-0.15c-1.542,1.332-2.605,3.919-3.664,5.621
	c-2.106,3.388-4.204,6.782-6.348,10.146c-3.67,5.756-7.293,12.67-12.477,17.25c-6.604,5.836-17.442,7.385-25.836,5.853
	c-11.163-2.038-22.537-8.877-30.449-17.109c-7.455,4.754-16.184,12.05-14.55,21.771c0.036,0.212-0.109,0.41-0.348,0.58
	c3.16,6.98,10.682,13.331,17.235,17.813c0.997,0.682,1.972,1.322,2.904,1.913c2.555,1.619,5.268,3.079,8.096,4.364
	C292.348,363.83,310.442,365.66,325.562,359.394z M439.187,474.785c1.846-1.713,4.43-3.165,6.005-4.834
	c5.673-6.013,8.713-13.175,10.382-21.223c1.546-7.455,1.827-15.104,3.403-22.546c1.051-4.96,2.198-9.901,3.3-14.851
	c5.341-23.998,10.617-48.011,15.861-72.031c9.023-41.342,17.983-82.699,26.723-124.104c2.79-13.222,5.592-26.443,8.215-39.7
	c0.715-3.611,1.404-7.225,2.002-10.857c1.214-7.38,6.321-18.457-3.712-21.077c-0.421-0.11,0.089-0.456,0.758-0.734
	c-11.14-3.083-22.229-6.372-33.267-9.777c-19.188-5.921-38.779-12.022-58.926-13.431c-4.516-0.315-9.623-1.35-13.104,2.277
	c-2.282,2.378-3.963,5.224-5.28,8.234c-3.013,6.887-4.839,14.176-6.9,21.382c-4.689,16.388-8.046,33.35-13.93,49.366
	c-0.037,0.103-0.104,0.195-0.182,0.284c1.929,2.157,3.988,4.237,6.173,6.028c6.947-24.161,14.683-48.111,22.587-71.975
	c0.251-0.757,2.194-1.225,2.795-0.749c1.777,1.409,9.424,2.133,12.178,2.736c26.516,5.81,53.091,11.347,79.66,16.903
	c0.033-0.035,0.061-0.078,0.096-0.108c0.57-0.491,3.453-0.779,2.264,0.248c0.262-0.226,0.271,0.005,0.184,0.392
	c0.158,0.033,0.317,0.066,0.476,0.1c0.54,0.113-0.02,0.535-0.751,0.857c-0.1,0.315-0.194,0.608-0.235,0.786
	c-0.515,2.217-1.012,4.438-1.507,6.66c-1.719,7.724-3.407,15.455-5.096,23.187c-5.455,24.983-10.881,49.974-16.344,74.955
	c-7.57,34.627-15.171,69.248-22.995,103.818c-5.171,22.848-9.96,45.917-16.374,68.459c-0.121,0.424-0.927,0.738-1.657,0.841
	c-0.263,0.258-0.654,0.44-1.146,0.435c-6.824-0.087-13.771-2.059-20.373-3.602c-11.079-2.589-22.087-5.485-33.068-8.46
	c-10.391-2.815-20.759-5.712-31.113-8.656c-4.115-1.171-10.495-3.5-13.9-3.992c-0.131-0.003-0.26-0.018-0.377-0.058
	c-0.049-0.017-0.094-0.045-0.141-0.064c-0.06,0.007-0.119,0.013-0.176,0.012c-0.01,0-0.02,0-0.029-0.001
	c-0.219-0.005-0.677-0.092-0.799-0.319c-1.183-2.207,1.52-8.48,2.056-10.657c1.999-8.127,4.102-16.229,6.214-24.329
	c2.158-8.273,4.34-16.541,6.519-24.809c0.997-3.782,2.484-7.733,3.019-11.619c0.019-0.137,0.08-0.263,0.172-0.378
	c-0.856-1.019-1.669-2.081-2.431-3.195c-3.448,4.817-7.278,9.731-11.534,14.103c0.033,0.096,0.055,0.197,0.055,0.315
	c-0.026,6.51-3.373,13.94-5.187,20.085c-3.124,10.585-6.373,21.132-9.601,31.685c-1.975,6.458-4,12.907-5.82,19.411
	c-1.4,5.002-2.413,11.441,0.766,15.962c4.74,6.739,13.961,9.245,21.434,11.854c8.398,2.934,16.861,5.685,25.346,8.358
	c17.449,5.501,35.015,11.093,52.854,15.213C429.445,472.686,434.319,473.912,439.187,474.785z M525.829,146.371
	c-0.201,0.032-0.393,0.036-0.555-0.006c-2.345-0.608-4.682-1.247-7.021-1.877c1.303,1.05,2.135,2.521,2.096,4.673
	c-0.104,5.527-1.777,11.09-2.672,16.517c-0.701,4.254-1.578,8.481-2.429,12.706c-3.747,18.602-7.702,37.162-11.656,55.721
	c-9.099,42.708-18.354,85.383-27.714,128.035c-4.247,19.357-8.515,38.709-12.841,58.049c-2.704,12.089-2.645,25.016-7.062,36.687
	c-1.955,5.166-4.969,9.818-8.974,13.639c-1.513,1.442-4.224,2.927-5.772,4.619c1.666,0.261,3.329,0.478,4.982,0.617
	c11.278,0.95,16.539-6.787,19.901-16.31c-0.037-0.069-0.06-0.147-0.046-0.244c2.203-16.435,6.502-32.83,9.816-49.063
	c6.564-32.144,13.213-64.27,19.981-96.371c6.031-28.607,11.996-57.247,18.679-85.712c2.148-9.155,4.865-18.155,7.02-27.304
	c2.48-10.533,4.619-21.141,7.042-31.687c1.048-4.562,3.289-9.094,3.54-13.811C532.403,150.39,529.724,147.868,525.829,146.371z
	 M391.614,439.28c-0.534,5.26-5.061,8.753-10.277,8.602c-10.808-0.314-10.617-15.498-0.922-16.762
	c-0.457-0.555,0.785-1.761,1.828-1.726C387.571,429.572,392.188,433.636,391.614,439.28z M388.59,437.613
	c-0.643-3.122-2.617-5.21-5.456-5.931c-0.081,0.601-1.067,1.396-1.924,1.356c-8.279-0.38-6.268,14.924,2.478,12.682
	C387.261,444.805,389.335,441.235,388.59,437.613z M183.223,165.37c1.591-5.813,11.77-3.014,17.149-2.737
	c1.264-3.291,2.752-9.686,5.273-13.273c-0.13-0.267-0.035-0.612,0.455-1c0.508-0.401,0.991-0.711,1.454-0.947
	c1.481-0.967,3.25-0.951,5.405,0.753c0.336,0.266,0.393,0.555,0.285,0.822c2.78,3.672,4.148,11.061,5.602,14.076
	c4.128-0.015,17.313-1.926,17.404,2.429c0.055,2.575-2.801,5.208-4.396,6.967c-1.658,1.83-4.114,3.592-5.444,5.664
	c-0.147,0.229-0.525,0.396-0.959,0.505c0.076,1.163,0.887,2.595,1.255,3.568c0.775,2.054,1.593,4.133,2.065,6.283
	c0.659,3.008,0.926,6.254-1.812,8.269c-5.495,4.046-12.374-4.446-17.172-7.792c-3.218,1.971-8.718,6.343-13.218,7.724
	c-0.266,0.266-0.668,0.464-1.159,0.477c-0.466,0.013-0.881-0.013-1.274-0.054c-1.935,0.021-3.491-0.891-4.29-3.367
	c-0.108-0.338,0.042-0.642,0.318-0.881c-0.108-4.494,3.539-11.347,4.168-14.739c-0.668-0.529-1.472-0.971-2.073-1.392
	c-1.734-1.213-3.449-2.443-5.065-3.813C185.059,171.1,182.381,168.447,183.223,165.37z M186.214,167.309
	c1.333,3.083,4.569,5.201,7.22,7.065c0.982,0.69,2.438,1.445,3.508,2.377c0.135,0.069,0.243,0.164,0.311,0.288
	c0.303,0.299,0.568,0.612,0.754,0.95c0.416,0.759-0.425,1.424-1.286,1.61c-1.467,4.185-4.912,12.006-3.112,14.662
	c2.806,2.149,10.202-3.706,14.362-6.456c-0.448-0.698,1.664-1.76,2.584-1.33c0.003,0.001,0.006,0.003,0.008,0.004
	c0.802-0.079,1.525,0.359,1.521,0.86c2.065,1.328,3.891,3.161,5.809,4.621c1.938,1.476,8.179,6.425,8.4,1.067
	c0.134-3.232-1.115-6.438-2.24-9.415c-0.566-1.5-1.74-3.514-1.512-5.182c0.102-0.743,1.257-1.194,2.086-1.109
	c0.989-1.049,2.189-2.006,3.116-2.992c1.579-1.682,5.674-5.129,5.619-7.751c-0.078-3.656-8.793-2.819-14.193-2.495
	c-0.223,0.948-2.248,1.53-2.754,0.654c-0.082-0.143-0.173-0.337-0.271-0.573c-0.21-0.012-0.402-0.027-0.56-0.053
	c-0.309-0.051-0.074-0.262,0.353-0.484c-1.421-3.853-4.097-14.396-7.029-14.41c-0.579,0.227-1.026,0.918-1.52,1.863
	c-0.843,1.618-1.489,3.324-2.049,5.059c-0.688,2.129-1.194,4.479-2.091,6.586c0.484,0.395,0.004,1.348-0.886,1.704
	c-0.618,0.632-2.221,0.776-2.631,0.253c-2.135-0.035-4.317-0.463-6.395-0.619C191.136,163.897,184.398,163.11,186.214,167.309z
	 M431.785,168.319c-1.163,6.913-4.493,18.496-13.124,18.972c-11.531,0.636-6.916-32.062,6.209-30.077
	C431.886,153.067,432.662,163.112,431.785,168.319z M423.941,182.149c2.605-3.399,4.008-8.787,4.603-11.893
	c0.256-1.332,1.076-7.506,0.13-10.314c-0.119-0.354-0.268-0.652-0.447-0.883c-0.048,0.082-0.117,0.162-0.195,0.24
	c-0.536,0.533-1.712,0.933-2.372,0.59c-6.15-3.196-9.36,8.121-10.017,12.228c-0.401,2.512-1.418,12.441,2.833,13.066
	c0.314,0.046,0.654,0.047,1.029-0.016C421.27,184.874,422.733,183.724,423.941,182.149z M447.031,170.371
	c4.379,0.902,8.76,1.797,13.138,2.706c4.514,0.938,9.024,1.89,13.525,2.889c0.722,0.161,7.517,2.253,7.815,1.872
	c-0.158,0.201,2.329,0.143,2.854-0.525c0.01-0.012,0.019-0.023,0.028-0.035c0.007-0.042,0.014-0.083,0.021-0.125
	c-0.749-1.008-3.669-1.203-4.762-1.464c-4.417-1.054-8.865-1.979-13.309-2.914c-4.729-0.996-9.462-1.967-14.195-2.938
	c-0.97-0.199-6.615-1.191-6.641-1.291c-0.155-0.606-3.058,0.152-2.898,0.777C442.758,169.906,446.571,170.276,447.031,170.371z
	 M480.688,188.385c0.008-0.042,0.015-0.083,0.022-0.125c-0.75-1.008-3.669-1.202-4.763-1.464c-4.416-1.053-8.865-1.978-13.309-2.913
	c-4.729-0.996-9.462-1.966-14.195-2.937c-0.97-0.199-6.615-1.191-6.641-1.291c-0.155-0.606-3.058,0.152-2.898,0.777
	c0.149,0.583,3.963,0.953,4.423,1.048c4.379,0.901,8.76,1.796,13.138,2.705c4.514,0.938,9.025,1.889,13.525,2.889
	c0.722,0.16,7.518,2.251,7.816,1.871c-0.158,0.202,2.33,0.143,2.854-0.525C480.671,188.408,480.68,188.396,480.688,188.385z
	 M422.197,277.813c-1.766,0.52-1.259,2.468,0.521,1.943c4.902-1.442,8.586,1.444,11.371,5.218c0.768,1.039,3.532-0.078,2.656-1.266
	C433.18,278.877,428.237,276.034,422.197,277.813z M434.932,269.652c-5.504-4.994-13.063-3.818-19.869-3.175
	c-0.747,0.07-3.161,1.345-1.256,1.164c6.403-0.604,13.221-1.697,18.395,2.997C432.772,271.157,435.375,270.055,434.932,269.652z
	 M401.396,369.824c-1.229-0.101-3.042,1.665-1.078,1.826c18.168,1.493,34.793-16.597,36.556-33.773
	c0.135-1.306-2.799-0.8-2.912,0.307C432.392,353.486,417.985,371.188,401.396,369.824z M442.591,322.097
	c0,1.511,2.934,1.059,2.934-0.227c-0.001-3.606-0.082-7.195-0.635-10.766c-0.206-1.325-3.111-0.597-2.898,0.777
	C442.518,315.271,442.59,318.673,442.591,322.097z M368.319,384.821c-0.92-0.05-2.421,0.551-2.235,1.117
	c0.618,1.876,0.092,4.382-1.104,5.931c-0.837,1.084-2.002,1.695-3.332,1.299c-0.568-0.169-1.167-0.52-1.783-1.101
	c-3.511-3.311,1.167-8.026,4.9-7.691c0.688,0.063,1.488-0.134,2.049-0.549c0.237-0.176,0.318-0.371,0.267-0.527
	c-0.047-0.141-0.201-0.247-0.469-0.275c-0.006,0-0.009-0.004-0.015-0.004c-0.729-0.065-1.573-0.008-2.462,0.153
	c-4.971,0.904-11.349,5.116-6.983,9.945c2.163,2.394,6.286,1.937,8.726,0.292c2.692-1.813,4.145-5.089,3.104-8.25
	C368.909,384.94,368.651,384.84,368.319,384.821z M385.138,394.799c-0.543,2.841-3.661,4.634-6.435,4.566
	c-2.466-0.06-5.91-0.934-5.91-4.002c-0.001-2.677,2.374-4.584,4.648-5.51c0.324-0.132,0.67-0.169,0.981-0.14
	c-0.222-0.589,1.822-1.502,2.601-1.182C383.427,389.518,385.672,392.003,385.138,394.799z M382.274,394.514
	c-0.007-0.245-0.032-0.491-0.094-0.737c-0.394-1.585-1.387-2.729-2.758-3.471c0.045,0.255-0.167,0.552-0.815,0.815
	c-1.493,0.608-3.218,2.135-2.89,3.961c0.289,1.608,1.879,2.581,3.469,2.588c0.246,0.001,0.491-0.017,0.732-0.063
	C381.438,397.313,382.317,395.966,382.274,394.514z M74.624,237.939c4.471-6.698,13.275-5.979,17.768-0.194
	c5.231-5.678,16.404-7.442,19.386,1.481c3.604,10.785-8.144,21.698-18.466,23.313c-0.349,0.122-0.671,0.204-0.844,0.195
	c-0.157-0.008-0.318-0.028-0.479-0.042c-0.158,0.013-0.317,0.03-0.475,0.038c-0.55,0.027-0.741-0.061-0.727-0.196
	C80.808,260.768,67.893,248.025,74.624,237.939z M76.296,246.475c2.265,6.995,9.673,14.171,17.311,14.959
	c8.026-1.048,17.865-11.183,15.821-19.528c-2.03-8.286-11.57-10.337-15.843-2.341c0.217,0.493-2.505,1.512-2.899,0.767
	c-1.843-3.484-7.547-8.88-11.704-4.709C76.263,238.35,75.095,242.765,76.296,246.475z M257.517,414.411
	c2.479,3.09,5.188,7.551,2.738,11.021c-1.226,1.738-3.064,2.771-5.075,3.357c0.413,3.096-0.179,6.297-3.037,8.105
	c-2.658,1.682-6.087,1.732-9.027,0.822c-1.001-0.31-2.063-0.772-3.03-1.381c-5.553,0.164-12.097,0.664-16.949-1.809
	c-1.494-0.762-2.646-1.719-3.543-2.818c-0.153,0.498-0.678,0.959-1.449,0.959c-4.062-0.003-9.324,0.613-12.648-2.237
	c-2.985-2.558-3.278-8.165-3.38-11.759c-0.278-9.796,4.655-16.85,15.022-13.525c0.176,0.057,0.304,0.129,0.406,0.207
	c0.613-1.333,1.537-2.547,2.85-3.59c0.224-0.178,0.764-0.32,1.292-0.379c-3.211-8.401-0.297-22.357,9.171-24.182
	c10.952-2.109,11.662,14.667,11.054,21.889c-0.005,0.051-0.021,0.1-0.047,0.146c5.726-0.362,12.55-0.383,17.468,2.664
	C264.288,404.976,261.177,411.161,257.517,414.411z M252.25,429.343c-0.798,0.076-1.593,0.115-2.358,0.102
	c-2.714-0.047-6.065-0.56-8.547-2.111c-1.236,1.249-2.135,2.81-1.474,4.558c0.344,0.911,0.987,1.654,1.765,2.251
	c0.302-0.003,0.606-0.009,0.906-0.01c1.049-0.002,1.379,0.613,1.209,1.188c0.25,0.099,0.499,0.188,0.746,0.264
	c1.756,0.543,4.28,0.862,5.9-0.266C252.385,433.936,252.581,431.56,252.25,429.343z M255.188,416.027
	c-3.115,1.656-7.133,2.299-10.692,1.444c-0.009,0.219-0.146,0.473-0.485,0.755c-1.827,1.514-3.432,3.767-2.238,5.798
	c1.256-0.489,3.076,0.569,1.641,1.602c2.145,1.417,5.064,1.873,7.526,1.881c0.425,0.002,0.891-0.02,1.367-0.057
	c0.532-0.634,1.741-0.879,2.337-0.404c1.36-0.397,2.58-1.108,3.173-2.369C259.157,421.822,257.186,418.538,255.188,416.027z
	 M257.741,410.734c5.91-10.231-11.523-10.312-17.488-9.885c-1.182,0.085-1.31-0.423-0.935-0.876
	c-0.19-0.012-0.312-0.046-0.307-0.104c0.477-5.646,0.556-18.72-5.994-21.347c-10.07-4.041-10.495,19.031-7.428,24.202
	c0.177,0.299-2.512,1.429-2.898,0.777c-0.188-0.317-0.36-0.653-0.526-0.997c-2.444,2.278-2.977,5.422-2.451,8.7
	c0.145,0.906-2.771,1.568-2.898,0.777c-0.291-1.82-0.232-3.546,0.196-5.139c-0.469,0.288-1.062,0.447-1.536,0.295
	c-10.568-3.389-11.282,8.153-9.938,15.624c0.424,2.353,0.932,5.941,3.557,6.911c2.919,1.077,6.236,0.816,9.291,0.818
	c0.133,0,0.253,0.012,0.363,0.03c-1.646-2.732-2.031-6.152-1.954-9.74c0.029-1.337,2.973-1.752,2.939-0.209
	c-0.112,5.21,0.863,10.911,6.591,12.559c3.67,1.055,7.566,1.122,11.422,1.067c-0.375-0.529-0.673-1.107-0.843-1.747
	c-0.7-2.639,0.717-4.919,2.581-6.678c-2.662-3.145,0.079-6.574,2.648-8.703c0.125-0.104,0.271-0.183,0.427-0.241
	c-1.024-0.438-1.983-1.021-2.832-1.771c-5.174-4.574,1.543-8.007,5.77-8.999c1.734-0.408,2.122,0.96,0.367,1.371
	c-1.715,0.403-5.743,1.319-5.156,3.924c0.373,1.653,1.782,2.881,3.262,3.602c3.588,1.748,7.198,1.582,10.096-0.275
	c-0.2-0.23-0.396-0.453-0.578-0.659c-0.896-1.011,1.868-2.125,2.666-1.225c0.015,0.017,0.031,0.036,0.046,0.054
	C256.763,412.228,257.283,411.527,257.741,410.734z" fill="#6d3708"></path>
</svg>