<?xml version="1.0" standalone="no"?>
<svg version="1.1" id="Layer_1_1_" xmlns="http://www.w3.org/2000/svg" xmlns:xlink="http://www.w3.org/1999/xlink" x="0px" y="0px" viewBox="0 0 2000 2000" enable-background="new 0 0 2000 2000" xml:space="preserve">
<path id="color_x5F_11" fill="#8b572a" d="M1381.3,996.1c0,0.1,0,0.2,0,0.3C1381.3,996.3,1381.3,996.2,1381.3,996.1z M1381.3,997.1
	c0-0.1,0-0.2,0-0.3C1381.3,996.9,1381.3,997,1381.3,997.1z M1381.3,995.8c0-0.1,0-0.2,0-0.3C1381.3,995.6,1381.3,995.7,1381.3,995.8
	z M1381.4,999.3c0-0.1,0-0.2,0-0.3C1381.4,999,1381.4,999.1,1381.4,999.3z M1381.3,993.8c0,0.1,0,0.2,0,0.3
	C1381.3,994,1381.3,993.9,1381.3,993.8z M1381.4,997.4c0,0.1,0,0.2,0,0.4C1381.4,997.7,1381.4,997.5,1381.4,997.4z M1398.6,1044.8
	L1398.6,1044.8L1398.6,1044.8z M1381.3,994.6c0-0.1,0-0.2,0-0.3C1381.3,994.4,1381.3,994.5,1381.3,994.6z M1381.3,995.2
	c0-0.1,0-0.2,0-0.3C1381.3,995,1381.3,995.1,1381.3,995.2z M1381.4,998.5c0-0.1,0-0.3,0-0.4C1381.4,998.3,1381.4,998.4,1381.4,998.5
	z M1402.5,1013.6c0,0.4-0.1,0.9-0.1,1.3C1402.4,1014.5,1402.5,1014.1,1402.5,1013.6z M1402.5,1013.5c0-0.4,0.1-0.9,0.1-1.3
	C1402.6,1012.7,1402.6,1013.1,1402.5,1013.5z M1402.4,1015.1c-0.1,0.5-0.1,0.9-0.2,1.4C1402.3,1016,1402.3,1015.5,1402.4,1015.1z
	 M1402.7,1012.1c0-0.4,0.1-0.8,0.1-1.2C1402.7,1011.3,1402.7,1011.7,1402.7,1012.1z M1381.5,999.7c0,0.1,0,0.2,0,0.3
	C1381.5,999.9,1381.5,999.8,1381.5,999.7z M1401.6,1020.8c0.2-1.4,0.4-2.9,0.6-4.3C1402,1017.9,1401.8,1019.3,1401.6,1020.8z
	 M1400.4,1027.8c-0.5,2.6-0.9,5-1.4,7.2C1399.5,1032.8,1400,1030.3,1400.4,1027.8z M1401.6,1020.8c-0.2,1.4-0.5,2.9-0.7,4.3
	C1401.1,1023.7,1401.4,1022.2,1401.6,1020.8z M1402.8,1009.5c0,0.4,0,0.8-0.1,1.2C1402.8,1010.4,1402.8,1009.9,1402.8,1009.5z
	 M1381.8,991.6c0-0.1,0.1-0.3,0.1-0.4C1381.8,991.3,1381.8,991.4,1381.8,991.6z M1382.2,990.1c0.1-0.2,0.1-0.3,0.2-0.5
	C1382.3,989.8,1382.3,990,1382.2,990.1z M1382.3,1009.9c0-0.1,0-0.1,0-0.2C1382.3,1009.8,1382.3,1009.8,1382.3,1009.9z
	 M1382.2,1009.3c0-0.1,0-0.1,0-0.2C1382.2,1009.2,1382.2,1009.3,1382.2,1009.3z M1382.1,1008.2c0-0.1,0-0.1,0-0.2
	C1382.1,1008,1382.1,1008.1,1382.1,1008.2z M1382,990.9c0-0.1,0.1-0.3,0.1-0.4C1382.1,990.6,1382,990.7,1382,990.9z M1382.2,1008.8
	v-0.1C1382.2,1008.7,1382.2,1008.7,1382.2,1008.8z M1402.9,1005.7c0,0.1,0,0.1,0,0.2c0,0.7,0,1.5,0,2.3
	C1402.9,1007.3,1402.9,1006.5,1402.9,1005.7z M1381.5,992.7c0-0.1,0-0.2,0.1-0.3C1381.5,992.5,1381.5,992.6,1381.5,992.7z
	 M1381.3,993.7c0-0.1,0-0.3,0-0.4C1381.4,993.4,1381.4,993.5,1381.3,993.7z M1381.7,991.8c0,0.1-0.1,0.2-0.1,0.3
	C1381.6,992.1,1381.6,992,1381.7,991.8z M1382.1,1007.3c0,0.1,0,0.2,0,0.2C1382.1,1007.4,1382.1,1007.4,1382.1,1007.3z M1381.6,1002
	c0,0.1,0,0.3,0,0.4C1381.6,1002.2,1381.6,1002.1,1381.6,1002z M1381.7,1003.1c0-0.1,0-0.2,0-0.4
	C1381.7,1002.9,1381.7,1003,1381.7,1003.1z M1381.7,1003.6c0,0.1,0,0.2,0,0.3C1381.8,1003.8,1381.8,1003.7,1381.7,1003.6z
	 M1381.6,1001.6c0-0.1,0-0.3,0-0.4C1381.6,1001.3,1381.6,1001.5,1381.6,1001.6z M1381.9,1005.1c0,0.1,0,0.2,0,0.3
	C1381.9,1005.3,1381.9,1005.2,1381.9,1005.1z M1382,1006.2c0-0.1,0-0.2,0-0.3C1381.9,1006,1382,1006.1,1382,1006.2z M1382,1006.6
	c0,0.1,0,0.2,0,0.3C1382,1006.8,1382,1006.7,1382,1006.6z M1381.5,1000.4c0,0.1,0,0.3,0,0.4
	C1381.5,1000.7,1381.5,1000.5,1381.5,1000.4z M1381.8,1004.7c0-0.1,0-0.2,0-0.3C1381.8,1004.5,1381.8,1004.6,1381.8,1004.7z
	 M1361.5,1046.7c0-0.1,0-0.1,0-0.2C1361.5,1046.6,1361.5,1046.7,1361.5,1046.7z M1364.1,1071.2c0,0.1,0,0.3,0,0.4
	C1364.1,1071.5,1364.1,1071.3,1364.1,1071.2z M1363.7,981.9c0.2-0.4,0.3-0.8,0.5-1.2C1364,981.2,1363.8,981.6,1363.7,981.9z
	 M1364.1,1070.4c0-0.1,0-0.3,0-0.4C1364.1,1070.1,1364.1,1070.3,1364.1,1070.4z M1364.1,1069.3c0-0.1,0-0.2,0-0.4
	C1364.1,1069,1364.1,1069.2,1364.1,1069.3z M1364,1062.5c0.1,0.6,0.1,0.9,0.2,1l0,0C1364.1,1063.4,1364,1063.1,1364,1062.5z
	 M1364.1,1066.7c0-0.1,0-0.2,0-0.3C1364.1,1066.6,1364.1,1066.6,1364.1,1066.7z M1364.1,1064.7c0-0.1,0-0.2,0-0.3
	C1364.1,1064.5,1364.1,1064.6,1364.1,1064.7z M1364.1,1065.7c0,0.1,0,0.2,0,0.3C1364.1,1065.9,1364.1,1065.8,1364.1,1065.7z
	 M1364.1,1064.3c0-0.1,0-0.2,0-0.3C1364.1,1064,1364.1,1064.1,1364.1,1064.3z M1364.1,1065.3c0-0.1,0-0.2,0-0.3
	C1364.1,1065.1,1364.1,1065.2,1364.1,1065.3z M1364.1,1068.2c0-0.1,0-0.1,0-0.2C1364.1,1068.1,1364.1,1068.2,1364.1,1068.2z
	 M1363.6,982.2c-0.2,0.4-0.3,0.8-0.5,1.2C1363.2,983,1363.4,982.6,1363.6,982.2z M1381.4,992.9c0,0.1,0,0.3-0.1,0.4
	C1381.4,993.1,1381.4,993,1381.4,992.9z M1362.1,1050.3C1362.1,1050.4,1362.1,1050.4,1362.1,1050.3
	C1362.1,1050.4,1362.1,1050.4,1362.1,1050.3z M1366.8,976.2c0.1,0,0.1,0,0.2,0.1c-0.3-0.1-0.6-0.2-0.9-0.4c-0.2,0.4-0.3,0.8-0.5,1.2
	c0.1-0.2,0.1-0.3,0.2-0.5C1365.9,976.2,1366.4,976,1366.8,976.2z M1365.3,977.8c-0.1,0.3-0.2,0.6-0.4,0.9
	C1365.1,978.4,1365.2,978.1,1365.3,977.8z M1363.7,1060.6c0-0.1,0-0.2,0-0.3C1363.6,1060.4,1363.6,1060.5,1363.7,1060.6z
	 M1402.9,1008.3c0,0.4,0,0.8,0,1.2C1402.9,1009.1,1402.9,1008.7,1402.9,1008.3z M1362.8,1055.3v0.1V1055.3z M1363.9,1062.4
	c0-0.1,0-0.2-0.1-0.3C1363.9,1062.1,1363.9,1062.3,1363.9,1062.4z M1363.8,1061.6c0-0.1,0-0.3-0.1-0.5
	C1363.8,1061.3,1363.8,1061.5,1363.8,1061.6z M1364.1,1063.7L1364.1,1063.7c0,0,0,0.1,0,0.2
	C1364.1,1063.8,1364.1,1063.7,1364.1,1063.7z M1477.6,1078.9c0-0.1,0-0.2,0-0.2c0-0.1,0-0.1,0-0.2
	C1477.7,1078.6,1477.7,1078.7,1477.6,1078.9z M1477.2,1083.2c0,0.1,0,0.2,0,0.3C1477.2,1083.5,1477.2,1083.3,1477.2,1083.2z
	 M1478.5,1068.1L1478.5,1068.1L1478.5,1068.1L1478.5,1068.1z M1405.2,996.9c0.3-0.3,0.6-0.5,0.9-0.8
	C1405.8,996.4,1405.5,996.7,1405.2,996.9z M1476.6,1088v0.1C1476.6,1088.1,1476.6,1088.1,1476.6,1088
	C1476.6,1088.1,1476.6,1088.1,1476.6,1088z M1404.3,997.8c-0.5,0.5-1.3,0.1-1.3-0.5c0,0.7-0.1,1.3-0.1,2c0,0.1,0,0.2,0,0.3
	c0-0.2,0.1-0.4,0.2-0.5c0.4-0.5,0.9-1,1.4-1.4C1404.4,997.7,1404.3,997.7,1404.3,997.8z M1478.1,1073.3c0,0.1,0,0.2,0,0.3
	C1478.1,1073.4,1478.1,1073.3,1478.1,1073.3z M1476.1,1040.2l0.1-0.1C1476.2,1040.2,1476.2,1040.2,1476.1,1040.2z M1476,1093.1
	c0,0.1,0,0.2,0,0.3C1476,1093.3,1476,1093.2,1476,1093.1z M1477.4,1039.4c0.5-0.3,1.1,0,1.2,0.5c0-0.4,0-0.8-0.1-1.3l0,0
	C1478.1,1038.9,1477.7,1039.2,1477.4,1039.4C1477.3,1039.4,1477.3,1039.4,1477.4,1039.4z M1474.9,1041l0.1-0.1
	C1474.9,1041,1474.9,1041,1474.9,1041z M1473.6,1041.8L1473.6,1041.8L1473.6,1041.8z M1469.2,1044.2c0.1,0,0.1-0.1,0.2-0.1
	C1469.4,1044.1,1469.3,1044.2,1469.2,1044.2z M1478.7,1043.5c0-0.1,0-0.3,0-0.4C1478.7,1043.2,1478.7,1043.4,1478.7,1043.5z
	 M1478.9,1058.9c0-0.1,0-0.1,0-0.2c0,0.1,0,0.2,0,0.3C1478.9,1059,1478.9,1059,1478.9,1058.9z M1478.7,1063.4c0,0.1,0,0.2,0,0.3
	C1478.7,1063.6,1478.7,1063.5,1478.7,1063.4z M1478.9,1053.6c0-0.1,0-0.2,0-0.2S1478.9,1053.5,1478.9,1053.6z M1478.9,1048
	L1478.9,1048L1478.9,1048L1478.9,1048z M1363.3,1058.2v-0.1V1058.2z M1397.9,1040.2c0,0.1,0,0.2-0.1,0.3
	C1397.8,1040.4,1397.9,1040.3,1397.9,1040.2z M1398,1039.6c0-0.1,0-0.1,0-0.2C1398.1,1039.5,1398,1039.5,1398,1039.6z
	 M1397.6,1041.7v0.1C1397.5,1041.8,1397.5,1041.8,1397.6,1041.7z M1397.7,1041c0,0.1,0,0.2-0.1,0.3
	C1397.7,1041.2,1397.7,1041.1,1397.7,1041z M1397.4,1042.4L1397.4,1042.4L1397.4,1042.4z M1398.3,1038.6c0-0.1,0-0.2,0.1-0.3
	C1398.3,1038.4,1398.3,1038.5,1398.3,1038.6z M1398.5,1037.6c0-0.1,0.1-0.3,0.1-0.4C1398.5,1037.4,1398.5,1037.5,1398.5,1037.6z
	 M1399,1035.2c0,0.1,0,0.2-0.1,0.3C1398.9,1035.4,1399,1035.3,1399,1035.2z M1382.3,1025.8L1382.3,1025.8l16.7,9.2l0,0
	L1382.3,1025.8z M1398.7,1036.6c0-0.1,0.1-0.3,0.1-0.4C1398.7,1036.4,1398.7,1036.5,1398.7,1036.6z M1382.3,1010.3v-0.1V1010.3z
	 M1360.1,970.1c0.1,0.2,0.2,0.4,0.4,0.6C1360.3,970.5,1360.2,970.3,1360.1,970.1z M1359.8,969.4L1359.8,969.4c0,0.1,0.1,0.2,0.1,0.3
	C1359.9,969.6,1359.9,969.5,1359.8,969.4z M1397.3,1042.9c0,0.1,0,0.1,0,0.2C1397.3,1043,1397.3,1043,1397.3,1042.9z M1382.6,1015
	v-0.1C1382.6,1015,1382.6,1015,1382.6,1015z M1345.9,1014.5c0.2-1.4,0.5-2.7,0.9-4C1346.4,1011.8,1346.1,1013.2,1345.9,1014.5z
	 M1382.4,1011.1v-0.1V1011.1z M1382.5,1011.9L1382.5,1011.9L1382.5,1011.9L1382.5,1011.9z M1382.4,1010.8v-0.1
	C1382.4,1010.7,1382.4,1010.7,1382.4,1010.8z M1382.5,1011.6L1382.5,1011.6L1382.5,1011.6z M1424,1053c0.5,0.1,1.1,0.1,1.6,0.2
	C1425.1,1053.1,1424.6,1053.1,1424,1053z M1383,987.8c-0.1,0.2-0.1,0.4-0.2,0.5C1382.9,988.2,1382.9,988,1383,987.8z M1349.5,1003.8
	c1.7-2.9,3.9-5,6.3-6C1353.4,998.8,1351.3,1000.9,1349.5,1003.8z M1418.3,1052c0.4,0.1,0.8,0.2,1.3,0.3
	C1419.2,1052.2,1418.8,1052.1,1418.3,1052z M1414.2,1051c-0.4-0.1-0.8-0.2-1.1-0.3C1413.4,1050.8,1413.8,1050.9,1414.2,1051z
	 M1414.6,1051.2c0.5,0.1,1.1,0.3,1.6,0.4C1415.7,1051.4,1415.1,1051.3,1414.6,1051.2z M1466.5,1045.5c-0.3,0.1-0.6,0.3-0.9,0.4
	C1466,1045.8,1466.2,1045.6,1466.5,1045.5z M1427.6,1053.4c-0.5,0-1-0.1-1.4-0.1C1426.7,1053.3,1427.2,1053.3,1427.6,1053.4z
	 M1454.9,1049.9c0.5-0.1,0.9-0.3,1.4-0.4C1455.9,1049.6,1455.4,1049.7,1454.9,1049.9z M1454,1050.2c-0.5,0.2-1.1,0.3-1.6,0.5
	C1452.9,1050.5,1453.5,1050.3,1454,1050.2z M1443.7,1052.7c-0.5,0.1-1.1,0.2-1.6,0.2C1442.6,1052.8,1443.1,1052.7,1443.7,1052.7z
	 M1435,1053.5c0.5,0,1,0,1.5-0.1C1436,1053.5,1435.5,1053.5,1435,1053.5z M1432.9,1053.5h0.1c0.4,0,0.9,0,1.3,0
	C1433.8,1053.5,1433.3,1053.5,1432.9,1053.5z M1397.2,1043.3c-0.1,0.4-0.1,0.6-0.1,0.6s0.2,0.1,0.5,0.3
	C1397.2,1044,1397.1,1043.7,1397.2,1043.3L1397.2,1043.3z M1437.1,1053.4c0.6,0,1.3-0.1,1.9-0.2
	C1438.4,1053.3,1437.7,1053.4,1437.1,1053.4z M1406.6,1048.6c-0.2-0.1-0.5-0.2-0.7-0.3C1406.2,1048.4,1406.4,1048.5,1406.6,1048.6z
	 M1441.4,1053c-0.7,0.1-1.5,0.2-2.2,0.3C1440,1053.2,1440.7,1053.1,1441.4,1053z M1392.4,1084.6c0,0-0.1-0.1-0.4-0.3
	c0.2,0.1,0.3,0.4,0.3,0.6C1392.4,1084.9,1392.4,1084.8,1392.4,1084.6z M1407.1,1048.8c0.3,0.1,0.5,0.2,0.8,0.3
	C1407.7,1049,1407.4,1048.9,1407.1,1048.8z M1392.3,1085.3c0,0.1-0.1,0.3-0.1,0.4C1392.3,1085.6,1392.3,1085.4,1392.3,1085.3z
	 M1409.7,1049.7c0.4,0.2,0.9,0.3,1.4,0.5C1410.6,1050,1410.2,1049.8,1409.7,1049.7z M1359,992.5c-0.1,0.2-0.2,0.3-0.3,0.5
	C1358.8,992.8,1358.9,992.6,1359,992.5z M1359.5,991.5c0.1-0.2,0.2-0.5,0.4-0.7C1359.7,991,1359.6,991.3,1359.5,991.5z
	 M1359.1,992.3c0.1-0.2,0.2-0.4,0.3-0.6C1359.3,991.9,1359.2,992.1,1359.1,992.3z M1358.7,1024.7
	C1358.7,1024.8,1358.7,1024.8,1358.7,1024.7C1358.7,1024.8,1358.7,1024.8,1358.7,1024.7z M1360.6,971c0.2,0.3,0.4,0.6,0.6,0.8
	C1361,971.6,1360.8,971.3,1360.6,971z M1360.4,989.7c-0.2,0.3-0.3,0.6-0.4,0.9C1360.1,990.3,1360.2,990,1360.4,989.7z
	 M1358.5,1023.1v-0.1C1358.5,1023.1,1358.5,1023.1,1358.5,1023.1z M1358.3,1021.5c0-0.1,0-0.1,0-0.2
	C1358.3,1021.4,1358.3,1021.4,1358.3,1021.5z M1358.6,993.1c-0.1,0.1-0.2,0.3-0.2,0.4C1358.5,993.4,1358.5,993.2,1358.6,993.1z
	 M1358.1,1019.8v-0.1V1019.8z M1361.9,972.6c-0.2-0.2-0.4-0.4-0.5-0.6C1361.6,972.2,1361.8,972.4,1361.9,972.6z M1383.2,987.4
	c0.1-0.2,0.1-0.4,0.2-0.6C1383.3,987.1,1383.2,987.2,1383.2,987.4z M1367.6,976.2c0,0-0.1,0-0.1-0.1
	C1367.5,976.1,1367.6,976.1,1367.6,976.2z M1382.5,989.3c0.1-0.2,0.1-0.3,0.2-0.5C1382.6,989,1382.5,989.1,1382.5,989.3z
	 M1362.3,972.9c0.1,0.1,0.3,0.3,0.4,0.4C1362.6,973.2,1362.4,973.1,1362.3,972.9z M1383.8,985.8c-0.1,0.2-0.2,0.4-0.2,0.6
	C1383.6,986.2,1383.7,986,1383.8,985.8z M1365.5,975.2c0.1,0,0.2,0.1,0.3,0.1C1365.6,975.3,1365.6,975.2,1365.5,975.2z
	 M1366.4,975.7c0.1,0,0.2,0.1,0.3,0.1C1366.6,975.7,1366.5,975.7,1366.4,975.7z M1357.8,994.2c0.1-0.1,0.1-0.2,0.2-0.2
	C1357.9,994.1,1357.9,994.1,1357.8,994.2z M1363.1,973.6c0.1,0.1,0.3,0.2,0.4,0.3C1363.4,973.9,1363.2,973.8,1363.1,973.6z
	 M1364,974.3c0.1,0.1,0.3,0.2,0.4,0.3C1364.2,974.5,1364.1,974.4,1364,974.3z M1357,1004.8L1357,1004.8L1357,1004.8z M1359.5,1031.6
	L1359.5,1031.6L1359.5,1031.6z M1357.3,995.7v0.1V995.7z M1356.9,1003.6L1356.9,1003.6L1356.9,1003.6z M1358.3,993.6
	c-0.1,0.1-0.2,0.3-0.3,0.4C1358.1,993.9,1358.2,993.8,1358.3,993.6z M1357.7,994.4c0,0.1-0.1,0.1-0.1,0.2
	C1357.7,994.5,1357.7,994.4,1357.7,994.4z M1356.9,1002.4L1356.9,1002.4L1356.9,1002.4z M1357.4,995.2c0,0.1,0,0.1,0,0.2
	C1357.4,995.3,1357.4,995.2,1357.4,995.2z M1357.6,994.7c0,0.1,0,0.1-0.1,0.2C1357.5,994.9,1357.5,994.8,1357.6,994.7z M1357,1006.1
	L1357,1006.1L1357,1006.1z M1360.1,1036.4c0,0.1,0,0.2,0,0.3C1360.2,1036.7,1360.1,1036.6,1360.1,1036.4z M1359.9,1034.8
	c0,0.1,0,0.2,0,0.3C1359.9,1035,1359.9,1034.9,1359.9,1034.8z M1358,1018.2v-0.1C1357.9,1018.1,1358,1018.2,1358,1018.2z
	 M1360.3,1038c0,0.1,0,0.3,0.1,0.4C1360.4,1038.3,1360.4,1038.2,1360.3,1038z M1359.7,1033.5c0-0.1,0-0.2,0-0.3
	C1359.7,1033.3,1359.7,1033.4,1359.7,1033.5z M1361.5,987.2c-0.4,0.9-0.7,1.7-1.1,2.4c0.8-1.7,1.7-3.8,2.6-6.2
	C1362.5,984.8,1362,986.1,1361.5,987.2z M1360.6,1040c0-0.1,0-0.2,0-0.3C1360.6,1039.8,1360.6,1039.9,1360.6,1040z M1357.8,1016.5
	L1357.8,1016.5L1357.8,1016.5z M1360.8,1041.6c0-0.1,0-0.2,0-0.3C1360.8,1041.4,1360.8,1041.5,1360.8,1041.6z M1400.9,1025.2
	c-0.2,0.9-0.3,1.8-0.5,2.6C1400.6,1026.9,1400.7,1026,1400.9,1025.2z M535.7,996.4L535.7,996.4L535.7,996.4z M533.4,997.1
	C533.4,997.1,533.3,997.1,533.4,997.1C533.3,997.1,533.4,997.1,533.4,997.1z M546.4,988.6L546.4,988.6L546.4,988.6z M530.8,997.6
	L530.8,997.6L530.8,997.6z M537.9,995.6L537.9,995.6L537.9,995.6z M545,990.4L545,990.4L545,990.4z M543.5,992L543.5,992L543.5,992z
	 M540,994.6L540,994.6L540,994.6z M548.1,987.5c-0.2-0.3-0.3-0.6-0.5-0.8l0,0C547.7,986.9,547.9,987.2,548.1,987.5z M541.8,993.4
	L541.8,993.4L541.8,993.4z M543.2,1014L543.2,1014L543.2,1014L543.2,1014z M528,997.9C528.1,997.9,528.1,997.9,528,997.9
	C528.1,997.9,528.1,997.9,528,997.9z M547.9,1012c0.1,0,0.2-0.1,0.3-0.1c0,0,0.1,0,0.1-0.1c0.1,0,0.1-0.1,0.2-0.1
	C548.3,1011.8,548.1,1011.9,547.9,1012z M545.5,1013.1c0.1,0,0.2-0.1,0.3-0.2C545.8,1013,545.7,1013,545.5,1013.1z M553.4,1009.3
	L553.4,1009.3L553.4,1009.3L553.4,1009.3z M518.7,998.1h0.1C518.8,998.1,518.8,998.1,518.7,998.1z M525.2,998.1h-0.1
	C525.1,998.1,525.2,998.1,525.2,998.1z M515.3,997.9h0.1C515.4,997.9,515.3,997.9,515.3,997.9z M551.3,995.3c-0.2-1-0.5-2-0.9-2.9
	C550.8,993.3,551.1,994.3,551.3,995.3z M522.1,998.2H522H522.1z M536.5,1100c-0.1-0.1-0.2-0.1-0.3-0.2
	C536.3,1099.9,536.4,1100,536.5,1100z M521.3,1089.6c0.5,0.3,1,0.7,1.5,1C522.3,1090.3,521.8,1090,521.3,1089.6z M519.5,1088.5
	c-0.5-0.3-0.9-0.5-1.4-0.7C518.5,1088,519,1088.3,519.5,1088.5z M521.1,1089.5c-0.4-0.3-0.9-0.5-1.3-0.8
	C520.2,1088.9,520.6,1089.2,521.1,1089.5z M524.8,1092.1c0.7,0.5,1.4,1,2.1,1.5C526.2,1093.2,525.5,1092.7,524.8,1092.1z
	 M523.2,1090.9c0.5,0.4,1.1,0.8,1.6,1.2C524.2,1091.7,523.7,1091.3,523.2,1090.9z M545.3,1013.2c-0.5,0.2-0.9,0.4-1.4,0.6
	c-0.2,0.1-0.4,0.2-0.6,0.3c-0.1,0-0.2,0.1-0.3,0.1c-0.3,0.1-0.7,0.3-1,0.4c-0.4,0.1-0.7,0.3-1.1,0.4c-0.3,0.1-0.6,0.2-1,0.3
	s-0.7,0.3-1.1,0.4c-0.3,0.1-0.6,0.2-0.9,0.3c-0.4,0.1-0.7,0.2-1.1,0.4c-0.3,0.1-0.6,0.2-0.9,0.3c-0.4,0.1-0.8,0.2-1.1,0.3
	s-0.5,0.1-0.8,0.2c-0.4,0.1-0.8,0.2-1.2,0.3c-0.2,0.1-0.4,0.1-0.6,0.1c-0.4,0.1-0.9,0.2-1.3,0.3l0,0c-1.3,0.3-2.5,0.5-3.8,0.7l0,0
	c-17.1,2.8-30.2-1.6-38.6-6.2l0,0c11.2,6.1,30.8,12,57.2,0.7C545.4,1013.1,545.4,1013.1,545.3,1013.2z M534.6,1098.9
	c0.1,0.1,0.2,0.2,0.4,0.2C534.8,1099,534.7,1098.9,534.6,1098.9z M527.6,1094.2c0.4,0.3,0.9,0.6,1.3,0.9
	C528.4,1094.8,528,1094.5,527.6,1094.2z M562.5,1032.1L562.5,1032.1L562.5,1032.1L562.5,1032.1z M557.3,1091.7c0-0.5,0-1.1,0-1.6
	C557.3,1090.6,557.3,1091.2,557.3,1091.7z M509.8,1085.3c-0.3,0-0.7,0-1,0C509.2,1085.3,509.5,1085.3,509.8,1085.3z M510.9,1085.4
	c-0.3,0-0.6-0.1-0.9-0.1C510.3,1085.3,510.6,1085.4,510.9,1085.4z M557.3,1090c0-1.7,0.1-3.5,0.3-5.5
	C557.4,1086.5,557.4,1088.4,557.3,1090z M550.3,1010.8c0.1,0,0.2-0.1,0.3-0.1s0.2-0.1,0.3-0.1c0,0,0,0,0.1,0
	C550.8,1010.6,550.6,1010.7,550.3,1010.8z M512.2,1085.6c-0.4-0.1-0.7-0.1-1.1-0.2C511.5,1085.5,511.9,1085.5,512.2,1085.6z
	 M516.6,1087.1c0.4,0.2,0.8,0.4,1.2,0.6C517.4,1087.4,517,1087.2,516.6,1087.1z M515.2,1086.5c0.4,0.2,0.8,0.3,1.3,0.5
	C516,1086.8,515.6,1086.6,515.2,1086.5z M513.7,1086c0.4,0.1,0.8,0.2,1.2,0.4C514.5,1086.2,514.1,1086.1,513.7,1086z M513.5,1085.9
	c-0.4-0.1-0.7-0.2-1-0.3C512.8,1085.8,513.2,1085.8,513.5,1085.9z M562.5,1056.6L562.5,1056.6L562.5,1056.6L562.5,1056.6z
	 M1391.9,1086.3c0.1-0.1,0.1-0.2,0.2-0.3C1392.1,1086.1,1392,1086.2,1391.9,1086.3z M1391.6,1086.9c0.1-0.1,0.1-0.2,0.2-0.3
	C1391.7,1086.7,1391.6,1086.8,1391.6,1086.9z M1390.8,1087.5c-0.1,0.1-0.2,0.1-0.3,0.2C1390.6,1087.6,1390.7,1087.6,1390.8,1087.5z
	 M1364.2,1074c0-0.1,0-0.2,0-0.3C1364.2,1073.8,1364.2,1073.9,1364.2,1074z M1390.2,1087.8c-0.1,0-0.2,0.1-0.3,0.1
	C1390,1087.9,1390.1,1087.8,1390.2,1087.8z M1391.3,1087.1c-0.1,0.1-0.2,0.1-0.3,0.2C1391.2,1087.3,1391.2,1087.2,1391.3,1087.1z
	 M500.8,1088c-0.1,0.1-0.3,0.2-0.4,0.3C500.5,1088.2,500.6,1088.1,500.8,1088z M499.6,1088.8c0.1-0.1,0.3-0.2,0.4-0.3
	C499.9,1088.6,499.7,1088.7,499.6,1088.8z M499,1089.2L499,1089.2L499,1089.2z M1364.1,1072.4c0,0.1,0,0.3,0,0.4
	C1364.1,1072.7,1364.1,1072.6,1364.1,1072.4z M1389.2,1088.1c0.1,0,0.2,0,0.4-0.1C1389.5,1088,1389.3,1088,1389.2,1088.1z
	 M501.1,1087.8c0.2-0.1,0.4-0.2,0.6-0.3C501.5,1087.5,501.3,1087.6,501.1,1087.8z M1384.5,1087.7c-0.1,0-0.2,0-0.3-0.1
	C1384.3,1087.7,1384.4,1087.7,1384.5,1087.7z M1383.9,1087.6c-0.1,0-0.1,0-0.2-0.1C1383.7,1087.6,1383.8,1087.6,1383.9,1087.6z
	 M1385.9,1088c-0.1,0-0.2,0-0.3-0.1C1385.7,1088,1385.8,1088,1385.9,1088z M1385.2,1087.9c-0.1,0-0.2,0-0.3-0.1
	C1385,1087.9,1385.1,1087.9,1385.2,1087.9z M1388.9,1088.1c-0.1,0-0.2,0-0.4,0C1388.6,1088.1,1388.8,1088.1,1388.9,1088.1z
	 M1387.8,1088.2c0.1,0,0.3,0,0.4,0C1388,1088.2,1387.9,1088.2,1387.8,1088.2z M554,1009.5L554,1009.5L554,1009.5z M1386.3,1088.1
	c0.1,0,0.2,0,0.4,0C1386.5,1088.1,1386.4,1088.1,1386.3,1088.1z M1387,1088.1c0.1,0,0.3,0,0.4,0
	C1387.3,1088.2,1387.2,1088.2,1387,1088.1z M559.1,1105.8L559.1,1105.8L559.1,1105.8z M550.2,1010.9c-0.5,0.3-1.1,0.5-1.6,0.8
	c0,0-0.1,0-0.1,0.1c0.7-0.3,1.4-0.7,2.1-1C550.4,1010.8,550.3,1010.9,550.2,1010.9z M553.4,1009.3c-0.8,0.4-1.6,0.9-2.4,1.3l0,0
	C551.8,1010.1,552.6,1009.7,553.4,1009.3L553.4,1009.3z M560.1,1067.9c0.4-1.9,0.8-3.8,1.3-5.8
	C560.9,1064.1,560.5,1066,560.1,1067.9z M559.5,1070.6c-0.7,3.6-1.2,6.8-1.5,9.7C558.4,1077.4,558.9,1074.1,559.5,1070.6z
	 M563.3,1038.6L563.3,1038.6L563.3,1038.6z M553.8,1009.2L553.8,1009.2L553.8,1009.2z M563.5,1045.8L563.5,1045.8L563.5,1045.8
	L563.5,1045.8z M547.7,1012.1c-0.5,0.2-1,0.4-1.4,0.6c-0.1,0-0.2,0.1-0.3,0.1c0.7-0.3,1.3-0.6,2-0.9
	C547.9,1012,547.8,1012.1,547.7,1012.1z M508.6,1085.3c-0.3,0-0.6,0-0.9,0.1C508,1085.3,508.3,1085.3,508.6,1085.3z M504.5,1086.1
	c-0.3,0.1-0.5,0.2-0.8,0.3C504,1086.3,504.2,1086.2,504.5,1086.1z M506.5,1085.6c-0.3,0.1-0.6,0.1-0.8,0.2
	C505.9,1085.7,506.2,1085.6,506.5,1085.6z M504.7,1086c0.2-0.1,0.4-0.1,0.7-0.2C505.2,1085.9,505,1085.9,504.7,1086z M502.9,1086.8
	c0.2-0.1,0.4-0.2,0.6-0.3C503.3,1086.6,503.1,1086.7,502.9,1086.8z M561.4,1062.1c0.2-0.9,0.4-1.9,0.6-2.8
	C561.8,1060.2,561.6,1061.1,561.4,1062.1z M1813,1231l-774.2,447L187,1186.3l286.5-165.4l-15.4,58.1c0,0,8.2,8.7,24,15.3
	c3.3,1.4,6,1.2,8.4,0.4l0,0c2.1,7.9,4.4,14.6,7,18.8c5,8.1,8.8,12.4,11.6,14.6c0.1,7.3,0.2,12.9,0.2,12.9l-1.3,64.7
	c0,0-0.9,52.8-0.8,55.8s-2.7,5.8-3,8.9s-25.6,24.4-28.9,28s-0.5,9.4-0.5,9.4s14.5,9.1,27.2-3s18.1-11.1,25.7-13.8s7-7.1,7-12.5
	s-4.2-16.6-5.5-20s0.9-15.2,0.9-15.2c-1.3-7.6,9-47.6,11.1-53.4c1.2-3.4,1.3-16,0.4-27.8c11.5,13.3,44.5,39.2,46.3,44.7
	c2.2,6.6,0.8,25.9-6,35.2c-6.8,9.3-6.3,19.9-6.3,19.9c27,7.1,35.5-21.3,38.8-29.8s8.7-1.6,12-15.8c3.3-14.2-17.5-16.9-22.9-18.8
	s-18.8-19.1-26.2-37.1s-18.3-25.7-30.6-34.7c-6.2-4.5-9.3-9.8-10.9-14c0.1-1.4,0.2-2.2,0.2-2.2s0.7-3.4,1.8-8.8
	c1.9,1.1,3.7,2,5.4,2.7l0,0v12.8l19.3-10.6v25.6L873.3,949v178.4l92,53.1l-47,27.2v7.4l176.5,101.9l53.5-30.9l96.7,55.8l27.5-16
	v-286.1L900.8,825.3l-1.4,0.8c0.1-16.9,0.2-34.4,0.3-51.2l61.6-35.6L1324,948.7v104l40.3,23.6c0-0.1,0-0.3,0-0.4
	c0.4,10,1.7,23,5.8,26.9c0.4,0.4,1,0.2,1.2-0.3l0,0c0.2-0.6,1.1-0.7,1.4-0.1c1,1.9,2.3,3.6,2.9,1c0.1-0.6,0.9-0.8,1.3-0.4
	c1.3,1.4,3.5,3.2,3.8,0.8c0.1-0.6,0.9-0.9,1.3-0.4c1.9,2.1,5.3,5.1,6.4,1.8c1.4-4.4-5.3-8.7-6.4-17.1c-0.1-0.6,0.4-1,1-0.8
	c0.1,0,0.2,0.1,0.4,0.1c0,0,0,0-0.1,0l18.8,11c0.2,1.3,0.4,2.5,0.6,3.8c5.8,32.2,14,12,11.5,44.3c0,0.2-0.1,0.4-0.3,0.5
	c-10.3,8.4-54.4,72.5-64.7,77.2c-0.4,0.2-0.6,0.6-0.4,1c1.3,3,6.9,14.2,18.1,17.7c-0.2,0.1-0.4,0.2-0.6,0.1
	c-8.3-2.4-13.5-9-16.3-13.7c-0.2-0.4-0.7-0.5-1-0.3c-1.6,0.9-2.9,1.6-3.8,1.9c-5.5,1.9-20.7,8.9-17.4,23.1s8.7,7.4,12,15.8
	s2.3,40.4,38.2,29.9c0.3-0.1,0.6-0.4,0.6-0.7c0-2.3-0.4-11.4-6.3-19.4c-6.8-9.3-8.2-28.7-6-35.2c0.1-0.4,0.4-0.9,0.9-1.5l0,0
	c0.2,0.1,0.5,0,0.7-0.1c3.2-2.5,31-24.7,42.1-38.4c0.4-0.5,1.3-0.3,1.3,0.5c1.4,45.5,10.4,87.7,10.4,87.7s0.2,7.5,11,7.8
	c-3.5,0.1-6-0.6-7.8-1.6c-0.4-0.2-0.9,0-1.1,0.4c-1.8,4.8-4.4,12.7-4.4,17c0,5.4-0.6,9.7,7,12.5s13,1.7,25.7,13.8
	c11.8,11.2,25.2,4.1,27,3.1c0.1-0.1,0.2-0.2,0.3-0.4c0.5-1.1,2.3-6-0.6-9.2c-3.3-3.6-28.6-24.9-28.9-28s-3.1-5.9-3-8.9
	c0-0.1,0-0.4,0-0.7c0-0.3-0.2-0.5-0.4-0.6c0.9-0.3,1.8-0.6,2.8-1c0.3-0.1,0.5-0.4,0.5-0.7c0.1-8.3,1.9-114,0.5-123.5
	c0-0.3,0.1-0.6,0.4-0.8c2.3-1.3,12.2-7,12.2-12.4c0-1.9,2.2-10.3,4.9-22.6l167.3,97.8v-15.7l16.5,10.3v-25l21.4,10.2v-64.2
	L1813,1231z M997.2,1485l185.8-107.3L811.5,1163l-186,107.4v15.6l371.7,214.6l185.8-107.3v-15.6L997.2,1485z M506.7,1085.5
	c0.3-0.1,0.6-0.1,0.8-0.1C507.3,1085.4,507,1085.5,506.7,1085.5z M530.8,1096.4c-0.4-0.2-0.7-0.5-1.1-0.7
	C530.1,1095.9,530.4,1096.2,530.8,1096.4z M502.6,1086.9c-0.2,0.1-0.4,0.2-0.6,0.3C502.2,1087.1,502.4,1087,502.6,1086.9z
	 M1417.9,1051.9c-0.5-0.1-1.1-0.2-1.6-0.4C1416.8,1051.7,1417.3,1051.8,1417.9,1051.9z M1381.9,1077.3
	C1381.9,1077.3,1381.9,1077.4,1381.9,1077.3C1381.9,1077.4,1381.9,1077.3,1381.9,1077.3z M1387.6,1081.5c0,0-0.1,0-0.1-0.1
	C1387.5,1081.4,1387.5,1081.5,1387.6,1081.5z M1380.6,1076.1C1380.6,1076.1,1380.6,1076.2,1380.6,1076.1
	C1380.6,1076.2,1380.6,1076.1,1380.6,1076.1z M1382.6,1078C1382.7,1078,1382.7,1078,1382.6,1078
	C1382.7,1078,1382.7,1078,1382.6,1078z M1380.2,1075.7C1380.2,1075.7,1380.1,1075.6,1380.2,1075.7
	C1380.1,1075.6,1380.2,1075.7,1380.2,1075.7z M1400.7,1049c0-0.3,0.1-0.6,0.1-0.9C1400.7,1048.4,1400.7,1048.7,1400.7,1049z
	 M1386.5,1080.8L1386.5,1080.8L1386.5,1080.8z M1385.6,1080.1c0,0-0.1,0-0.1-0.1C1385.5,1080.1,1385.6,1080.1,1385.6,1080.1z
	 M1383.5,1078.6l0.1,0.1C1383.6,1078.7,1383.5,1078.7,1383.5,1078.6z M1384.5,1079.3c0.1,0,0.1,0.1,0.2,0.1
	C1384.6,1079.4,1384.5,1079.4,1384.5,1079.3z M1381.2,1076.8C1381.2,1076.8,1381.2,1076.7,1381.2,1076.8
	C1381.2,1076.7,1381.2,1076.8,1381.2,1076.8z M1399.9,1070.3c0,0.4,0,0.8,0,1.2C1399.9,1071.1,1399.9,1070.7,1399.9,1070.3z
	 M1400,1073.3c0,0.5,0,1,0,1.5C1400,1074.2,1400,1073.7,1400,1073.3z M1400.8,1046C1400.9,1046,1400.9,1046,1400.8,1046
	c0.1,0.1,0.1,0.1,0.1,0.2l0,0c0,0.3-0.1,0.6-0.1,0.9c0.1-0.5,0.6-0.8,1.1-0.6h0.1C1401.6,1046.3,1401.2,1046.2,1400.8,1046z
	 M1402,1097.6c-0.1-0.8-0.2-1.7-0.4-2.5C1401.7,1095.9,1401.8,1096.8,1402,1097.6z M1399.9,1064.1c0-0.2,0-0.5,0-0.7
	C1399.9,1063.6,1399.9,1063.9,1399.9,1064.1z M1400.5,1050.9c0,0.2,0,0.3,0,0.5C1400.5,1051.3,1400.5,1051.1,1400.5,1050.9z
	 M1400.3,1054C1400.3,1053.9,1400.3,1053.9,1400.3,1054C1400.3,1053.9,1400.3,1053.9,1400.3,1054z M1399.9,1066.8c0-0.2,0-0.5,0-0.7
	C1399.9,1066.4,1399.9,1066.6,1399.9,1066.8z M1400,1076.4c0,0.9,0.1,1.9,0.1,2.8C1400.1,1078.2,1400.1,1077.3,1400,1076.4z
	 M1375.6,1058.2c0-0.1,0-0.3,0.1-0.4C1375.6,1057.9,1375.6,1058.1,1375.6,1058.2z M1375.2,1061.9c0,0.1,0,0.2,0,0.3
	C1375.2,1062.1,1375.2,1062,1375.2,1061.9z M1379.6,1042.7c0,0.1,0,0.2-0.1,0.2C1379.6,1042.8,1379.6,1042.7,1379.6,1042.7z
	 M1380.7,1037.8c0,0.1,0,0.1,0,0.2C1380.7,1037.9,1380.7,1037.9,1380.7,1037.8z M1376.3,1055c0-0.1,0-0.1,0-0.2
	C1376.3,1054.8,1376.3,1054.9,1376.3,1055z M1384.2,984.7c-0.1,0.2-0.2,0.5-0.3,0.7C1384,985.2,1384.1,984.9,1384.2,984.7z
	 M1374.2,977.9c-1-0.1-2.1-0.3-3.1-0.5c0.1,0,0.3,0.1,0.4,0.1C1372.4,977.7,1373.3,977.8,1374.2,977.9z M1369.4,977
	c-0.2,0-0.3-0.1-0.5-0.1C1369,976.9,1369.2,976.9,1369.4,977z M1388.5,1082.2l-0.1-0.1C1388.5,1082.1,1388.5,1082.1,1388.5,1082.2z
	 M1384.6,983.7L1384.6,983.7c-0.1,0.2-0.1,0.4-0.2,0.5C1384.5,984.1,1384.5,983.9,1384.6,983.7z M1376,1056.1c0-0.1,0-0.2,0.1-0.3
	C1376,1055.9,1376,1056,1376,1056.1z M1391.6,1084.1L1391.6,1084.1L1391.6,1084.1z M1391,1083.7L1391,1083.7L1391,1083.7z
	 M1400.2,1056.7L1379,1045l0,0L1400.2,1056.7L1400.2,1056.7z M1389.4,1082.7L1389.4,1082.7L1389.4,1082.7z M1401.2,1091.6
	c0.1,0.7,0.2,1.4,0.3,2.1C1401.3,1093,1401.2,1092.3,1401.2,1091.6z M1375.3,1061.2c0-0.1,0-0.3,0-0.4
	C1375.3,1060.9,1375.3,1061.1,1375.3,1061.2z M1375.8,1057.1c0-0.1,0-0.2,0.1-0.3C1375.8,1056.9,1375.8,1057,1375.8,1057.1z
	 M1375.4,1059.2c0-0.1,0-0.3,0.1-0.4C1375.5,1058.9,1375.4,1059.1,1375.4,1059.2z M1375.4,1059.8c0,0.1,0,0.3,0,0.4
	C1375.3,1060.1,1375.3,1059.9,1375.4,1059.8z M1460.7,1047.9c-0.4,0.1-0.8,0.3-1.2,0.4C1460,1048.2,1460.4,1048.1,1460.7,1047.9z
	 M1469.3,1130.6c0,0.1,0,0.1,0,0.2C1469.3,1130.7,1469.3,1130.6,1469.3,1130.6z M1469.7,1128.7c0-0.2,0.1-0.3,0.1-0.5
	C1469.8,1128.4,1469.8,1128.5,1469.7,1128.7z M1470.2,1126.6c0-0.2,0.1-0.4,0.1-0.6C1470.3,1126.2,1470.2,1126.4,1470.2,1126.6z
	 M1470.7,1124.3c0-0.2,0.1-0.3,0.1-0.5C1470.7,1124,1470.7,1124.1,1470.7,1124.3z M1400.7,1087.2c0.1,1,0.2,2,0.3,3.1
	C1400.9,1089.3,1400.8,1088.3,1400.7,1087.2z M1471.2,1121.5c0,0.1,0,0.2-0.1,0.3C1471.2,1121.7,1471.2,1121.6,1471.2,1121.5z
	 M1463.7,1046.7c0.3-0.1,0.7-0.3,1-0.4C1464.4,1046.4,1464.1,1046.6,1463.7,1046.7z M1458.6,1048.7c-0.4,0.1-0.8,0.3-1.3,0.4
	C1457.8,1049,1458.2,1048.8,1458.6,1048.7z M532.4,1097.5c-0.3-0.2-0.5-0.3-0.8-0.5C531.9,1097.2,532.2,1097.3,532.4,1097.5z
	 M1462.8,1047.1c-0.4,0.1-0.7,0.3-1.1,0.4C1462.1,1047.4,1462.4,1047.3,1462.8,1047.1z M1471.7,1119.2
	C1471.7,1119.2,1471.7,1119.1,1471.7,1119.2C1471.7,1119.1,1471.7,1119.2,1471.7,1119.2z M1511,1118.1l-35.8-19.8c0-0.1,0-0.2,0-0.3
	c0,0.2-0.1,0.4-0.1,0.6c0-0.1,0-0.2,0.1-0.4L1511,1118.1z M1449,1051.6c0.9-0.2,1.7-0.4,2.6-0.7
	C1450.7,1051.1,1449.8,1051.3,1449,1051.6z M1472.2,1116.2c0,0.2-0.1,0.4-0.1,0.6C1472.2,1116.7,1472.2,1116.5,1472.2,1116.2z
	 M1474.8,1101.2c0-0.3,0.1-0.5,0.1-0.8C1474.9,1100.7,1474.8,1101,1474.8,1101.2z M1473.9,1106.9c0-0.2,0.1-0.4,0.1-0.6
	C1474,1106.5,1473.9,1106.7,1473.9,1106.9z M1472.6,1114.5c0-0.3,0.1-0.5,0.1-0.8C1472.6,1114,1472.6,1114.2,1472.6,1114.5z
	 M1474.4,1103.8c0-0.1,0-0.1,0-0.2C1474.4,1103.6,1474.4,1103.7,1474.4,1103.8z M1473.4,1109.6c0-0.3,0.1-0.5,0.1-0.8
	C1473.5,1109.1,1473.5,1109.3,1473.4,1109.6z M1473.1,1111.3c-0.1,0.3-0.1,0.6-0.2,0.8C1473,1111.8,1473.1,1111.5,1473.1,1111.3z
	 M1467.5,1045.1c0.2-0.1,0.5-0.2,0.7-0.3C1468,1044.8,1467.7,1044.9,1467.5,1045.1z M1403.9,1047.4c-0.2-0.1-0.3-0.2-0.5-0.2
	C1403.6,1047.3,1403.8,1047.4,1403.9,1047.4z M1402.9,1047c-0.1-0.1-0.3-0.1-0.4-0.2C1402.6,1046.9,1402.8,1046.9,1402.9,1047z
	 M1405.5,1048.1c-0.3-0.1-0.7-0.3-1-0.4C1404.8,1047.8,1405.1,1048,1405.5,1048.1z M1448.7,1051.6c-0.1,0-0.2,0.1-0.3,0.1
	c-0.6,0.1-1.1,0.3-1.7,0.4c0.8-0.2,1.5-0.3,2.3-0.5C1448.9,1051.6,1448.8,1051.6,1448.7,1051.6z M1412.6,1050.6
	c-0.4-0.1-0.7-0.2-1.1-0.3C1411.9,1050.4,1412.2,1050.5,1412.6,1050.6z M1400.1,1045.6C1400,1045.6,1400,1045.6,1400.1,1045.6
	C1400,1045.6,1400,1045.6,1400.1,1045.6z M1400.2,1080.6c0,0.6,0.1,1.3,0.1,1.9C1400.3,1081.8,1400.3,1081.2,1400.2,1080.6z
	 M1400.5,1083.9c0,0.7,0.1,1.3,0.2,2C1400.6,1085.3,1400.5,1084.6,1400.5,1083.9z M1399.3,1045.2L1399.3,1045.2L1399.3,1045.2z
	 M1409.6,1049.6c-0.4-0.1-0.8-0.3-1.2-0.4C1408.8,1049.4,1409.2,1049.5,1409.6,1049.6z M1431.5,1053.5c-0.4,0-0.9,0-1.3,0
	c0.3,0,0.7,0,1.1,0C1431.3,1053.5,1431.4,1053.5,1431.5,1053.5z M1364.3,980.4c0.1-0.3,0.3-0.7,0.4-1.1
	C1364.6,979.7,1364.4,980,1364.3,980.4z M1432.7,1053.5L1432.7,1053.5L1432.7,1053.5C1432.8,1053.5,1432.7,1053.5,1432.7,1053.5z
	 M1446,1052.2c-0.5,0.1-1.1,0.2-1.6,0.3C1444.9,1052.4,1445.5,1052.3,1446,1052.2z M1432.2,1053.5c-0.2,0-0.3,0-0.5,0
	c-0.1,0-0.3,0-0.4,0C1431.6,1053.5,1431.9,1053.5,1432.2,1053.5z M1421.6,1052.6c-0.5-0.1-1-0.2-1.4-0.2
	C1420.6,1052.5,1421.1,1052.6,1421.6,1052.6z M1429.9,1053.5c-0.6,0-1.1-0.1-1.7-0.1C1428.8,1053.4,1429.3,1053.5,1429.9,1053.5z
	 M1421.9,1052.7c0.6,0.1,1.2,0.2,1.9,0.3C1423.2,1052.9,1422.5,1052.8,1421.9,1052.7z"></path>
<polygon id="color_x5F_10" fill="#4a4a4a" points="1038.7,1678.1 187,1186.3 187,1240.5 1038.7,1732.2 1813,1285.2 1813,1231 "></polygon>
<path id="color_x5F_9" fill="#FFFFFF" d="M608,852.8l-0.7-1.3c-1-1.8-0.3-4,1.4-5l81.5-45.1c1.8-1,4-0.3,5,1.4l0.7,1.3
	c1,1.8,0.3,4-1.4,5L613,854.2C611.2,855.2,608.9,854.6,608,852.8z M614.6,835.6l117.2-64.9c1.8-1,2.4-3.2,1.4-5l-0.7-1.3
	c-1-1.8-3.2-2.4-5-1.4l-117.2,64.9c-1.8,1-2.4,3.2-1.4,5l0.7,1.3C610.6,836,612.8,836.6,614.6,835.6z"></path>
<path id="color_x5F_8" fill="#9b9b9b" d="M882.6,589.8c-4.5-0.8-11-2.1-11-2.1s-5.6,19.7-13.4,33.7s-26.7,6.2-26.7,6.2
	s-7.5,28.2-9.6,31.2s-26.3,1.5-26.3,1.5l-9.8,27.4l-19.3-1.2c0,0-2.1,1.5-9.9,6.3c-7.8,4.8-26.8,10.1-26.8,10.1s6.8,48.6-18.4,47.3
	c-25.1-1.4-25.1,23.5-25.1,23.5s-8-2.1-14.8-4.8s-6.8,4.8-6.8,4.8l-0.7-0.4c-12-2.8-55.4,20.5-55.4,20.5l-17.3-7.2l-9,14.1
	c-9.8,4-19-6.2-19.8-7.2c0.1,7-1.5,13.9-1.5,13.9s-5.9,16,4.8,26.3s8.9,20.5,10.1,25.1s-1.4,13.1-4.9,17.5c-0.9,1.1-1.9,2.7-2.8,4.3
	c0.2-0.3,0.3-0.6,0.5-0.8c0.2,0.5,0.3,0.8,0.3,0.8s14.2,24.2,16.5,27.4c1,1.4,2.8,2.9,4.5,4.2c1.4-0.8,2.9-1.5,4.6-2
	c14.9-4.8,37.3-14.9,39.8-13.3c2.4,1.6,11.2,4,11.2,4s6.8-39.3,10-37.3s12.2,9.2,12.2,9.2s3.4-6.8,7-9.3s24.3-11.4,24.3-11.4l8.8,4
	c0,0,8.4-25.9,13.7-26.7c5.2-0.8,7.4-0.6,8.4-0.8s3.2-15.7,3.2-15.7s13-2.4,12.4-7l7.6-1.6V740l17.3-0.8c0,0,10.6-15.3,15.3-17.3
	c0.4-0.2,0.7-0.2,1-0.2l1.6-4c0,0,10.4,2.2,12.8,1c2.4-1.2,9.4-4.4,11.4-1s6.4,5,6.4,5s8.8-29.3,26.1-29.5c0,0,6.8-23.1,15.7-21.5
	s10.8,8.8,22.3,7.8c0,0,0.5-0.5,1.3-1.5L882.6,589.8z M694.5,809.1L613,854.2c-1.8,1-4,0.3-5-1.4l-0.7-1.3c-1-1.8-0.3-4,1.4-5
	l81.5-45.1c1.8-1,4-0.3,5,1.4l0.7,1.3C696.9,805.9,696.2,808.1,694.5,809.1z M731.8,770.7l-117.2,64.9c-1.8,1-4,0.3-5-1.4l-0.7-1.3
	c-1-1.8-0.3-4,1.4-5L727.5,763c1.8-1,4-0.3,5,1.4l0.7,1.3C734.2,767.5,733.6,769.7,731.8,770.7z M553.4,1009.3
	c-3.5,1.9-6.9,3.5-10.2,4.8l0,0C546.5,1012.7,549.9,1011.1,553.4,1009.3z M563.6,890.7L563.6,890.7L563.6,890.7z M543.2,771V482.6
	l66.3-38.9l4,7.2l8.4-4c0,0-1.2,9.2,1.2,6.4c0.9-1.1,7.3-1.7,14.8-2l-75.5,44.6v295.7c-0.2-3.2-0.8-6.4-2.1-8.8
	C557.5,777.6,551.4,774.3,543.2,771z M555,921l7.5,10.7V1032c-2.5-14.5-8.7-23-8.7-23c-0.1,0.1-0.2,0.1-0.3,0.2
	c-0.6-5.1-1.3-9.3-1.8-12.6c-0.6-3.9-2.3-7-4-10.1c0.1-0.2,0.2-0.4,0.3-0.6c0,0-7.2-9.8,0-31.9c0.1-0.4,0.3-0.9,0.4-1.3
	C555.1,931.5,555,921,555,921z M563.7,890.5c0,0.1-0.1,0.1-0.1,0.2C563.7,890.6,563.7,890.6,563.7,890.5z M543.5,992L543.5,992
	L543.5,992z M659.5,438.5c-1.1-2.7-2.2-5.1-2.8-6.4c2.4-0.7,10.2-11.8,10.2-11.8l15.3-2c6.4-10.6,19.3-13.3,19.3-13.3l0.4-18.1
	l173.9-105.6l0.6,28.9L659.5,438.5z M546.4,988.6L546.4,988.6L546.4,988.6z M545,990.4L545,990.4L545,990.4z M562.5,1105.6
	l-19.3,10.6v-12.8c11.4,5,16,2.3,16,2.3s-5.5-11.5,2.2-43.7c0.4-1.9,0.8-3.7,1.1-5.5V1105.6z M566.3,884.4c0.1-0.2,0.2-0.5,0.4-0.8
	C566.6,883.9,566.4,884.1,566.3,884.4z M565.8,885.4c-0.1,0.3-0.2,0.5-0.3,0.8C565.6,886,565.7,885.7,565.8,885.4z M566.3,884.5
	c-0.1,0.3-0.3,0.5-0.4,0.8C566,885,566.1,884.8,566.3,884.5z M566.8,883.5c0.1-0.3,0.3-0.6,0.4-0.8
	C567,882.9,566.9,883.2,566.8,883.5z M567.6,881.7c-0.1,0.3-0.3,0.5-0.4,0.8C567.4,882.2,567.5,882,567.6,881.7z M563.7,890.4
	c0-0.1,0.1-0.2,0.1-0.2C563.8,890.3,563.8,890.4,563.7,890.4z M568.1,880.8c-0.1,0.3-0.3,0.6-0.4,0.8
	C567.8,881.3,568,881.1,568.1,880.8z M564.5,888.6c-0.1,0.2-0.2,0.4-0.2,0.6C564.3,889,564.4,888.8,564.5,888.6z M564.2,889.2
	c-0.1,0.2-0.1,0.3-0.2,0.5C564.1,889.5,564.2,889.4,564.2,889.2z M563.9,890.1c0-0.1,0.1-0.2,0.2-0.4
	C564,889.9,563.9,890,563.9,890.1z M564.8,887.8c-0.1,0.2-0.2,0.4-0.3,0.6C564.6,888.3,564.7,888.1,564.8,887.8z M565.2,887
	c0.1-0.2,0.2-0.5,0.3-0.7C565.4,886.5,565.3,886.7,565.2,887z M564.8,887.8c0.1-0.2,0.2-0.5,0.3-0.7
	C565,887.4,564.9,887.6,564.8,887.8z M1438.1,837.9c-2.5,0-5.2-0.3-8.2-1.2c0-0.2,0-0.3,0-0.3
	C1432.9,837.4,1435.7,837.8,1438.1,837.9z M1451,834.4c0.1-0.1,0.2-0.1,0.2-0.1c1.8,0.3,3.3,0.5,4.8,0.5
	C1454.5,834.8,1452.9,834.7,1451,834.4z M1547.6,593.7L1344,471.2l0.4-24.8l164.3,97.9l-0.3,16.4c10.5,2.6,17.3,12.1,17.3,12.1
	l15.4,1l1,6.9l6.9,4.3L1547.6,593.7z M1417.5,851.2c-0.4-0.2-0.8-0.3-1.2-0.5c-0.8-1.4-1.5-2.3-2.1-2.8c0,0.1,0,0.2,0.1,0.2
	c0,0.1-0.5-0.2-1.2-0.7C1413.5,847.2,1414.7,846.2,1417.5,851.2z M1651.8,633.2v596.2l-16.5-10.3v-184.2l-14.4,9.6
	c-8.3-16.4-40.6-23.4-45.6-27.7c-5-4.4-2.2,2.2-10.3,3.3s-7-2-7-2c-2.6-23.6-8.5-31.2-8.5-29.7s-10.7,7-10.7,7s-0.9-1.5-2.6-5.2
	s-19.9-13.3-23.8-14.8s-13.1,5.2-12.4,3.3c0.7-2-8.5-18.8-8.7-22.5s-10.9-2.2-10.9-2.2c-1.8-1.4-2.5-4.5-2.7-7.5
	c7.8-5.8,11.2-13.9,11.2-13.9s-15-13.1-14.8-29.9c0.2-25.7-10.2-22.2-10.2-22.2c-0.1,0-0.3,0-0.4,0.1c-1.2,1.4-2.5,2.6-4.1,3.5v-0.5
	c9.5-6.4,10.6-24.8,9-42.2c-0.1-0.6-0.1-1.2-0.2-1.8c-0.4-1.5-0.8-2.9-1.3-4.1c0.3,0.1,0.6,0.1,1,0.2c1.2,3.1,2.1,7,2,10.7
	c-0.1,5.3,2.3-2,2.3-9.9c1.4,0.2,3,0.5,4.6,0.7c0,0,11.5,16.7,9.8,40.6c-1.6,23.9,19,3.9,27.5,12.4s7.5,19.6,14.1,19.6
	c6.5,0,13.4-9.8,13.4-9.8l8.5,7.5c0,0,30.8,10.8,41.2,20.6c0,0,16.4,0,17.3-8.5s8.2,13.7,8.2,13.7s11.1,2.6,16.7-3.9
	s0-283.8,0-283.8l-64.8-39l10.8-1.2l1-4.9l8.5,2.6l6.9-6.3L1651.8,633.2z M1468.3,933.5l0.2,1.3l0,0L1468.3,933.5
	c-0.2-0.1-0.4-0.1-0.6-0.1C1467.9,933.4,1468.1,933.4,1468.3,933.5z M1338.5,814.1l1.3-79.3l9-1.7c0,0,8.8,30.4,16,33.7
	s23.2,4.3,23.2,4.3s1.3,21.6,8.5,26.2c7.2,4.6,25.5,4.6,25.5,4.6s0.3,4.6,0.9,9.7c-1.3,1.7-1.9,3.2-1.9,3.2s-5.2-2.2-10.6,4.6
	c-5.5,6.8-0.8,14.2-0.8,14.2c-2.5,5.6,1.8,12.3,3.1,13.7c-0.3,0.1-0.4,0.2-0.5,0.3c-0.1,0-0.5-0.4-0.9-1c-2.4-1-5.4-1.2-5.9,3.5
	c-4.5,1.5-5.9,3.3-5.9,3.3c-8.1-16.8-26.8-30.8-26.8-30.8c-7.9-17.2-13.3-15.9-13.5-16.8C1358.8,804.9,1344.3,813.8,1338.5,814.1z"></path>
<path id="color_x5F_7" fill="#4a4a4a" d="M574.5,932.6c-0.1,0.1-0.3,0.2-0.4,0.2C574.2,932.8,574.3,932.7,574.5,932.6z M575.2,932.3
	c0.2-0.1,0.3-0.2,0.5-0.2C575.5,932.1,575.4,932.2,575.2,932.3z M572.9,933.4c0.1-0.1,0.3-0.1,0.4-0.2
	C573.2,933.3,573.1,933.4,572.9,933.4z M576.4,931.6c0.2-0.1,0.3-0.2,0.5-0.2C576.8,931.4,576.6,931.5,576.4,931.6z M571.9,934
	c0.1-0.1,0.2-0.1,0.4-0.2C572.1,933.9,572,933.9,571.9,934z M563.5,1045.8c3.3-2.1,10.1-6.6,10.8-8.3c1-2.3,3.8-1.5,4.6-12
	s-4.4-22.3-3.1-52.2c0,0,1.5-14.6,1.1-18.6c-0.2-2.1-4.7-10.6-9.7-18.5c-0.8,0.4-1.3,0.6-1.3,0.6l0,0l0,0l-3.4-5v100.3
	C563.2,1036.2,563.6,1040.8,563.5,1045.8L563.5,1045.8z M570.1,934.8C570.2,934.8,570.2,934.8,570.1,934.8
	C570.2,934.8,570.2,934.8,570.1,934.8z M570.9,934.4c0.1-0.1,0.2-0.1,0.3-0.2C571.1,934.4,571,934.4,570.9,934.4z M579.4,930
	c-0.1,0.1-0.3,0.2-0.4,0.2C579.1,930.1,579.2,930,579.4,930z M898.3,670.3c3.2,5.8,0,264,0,264l-335.9,196.9v-74.7
	c0.4-2.4,0.7-4.6,0.8-6.9c2.9,1.9,9.1-0.5,9.1-0.5c-0.6,9.2-8,13.6-6.5,18.3c1.5,4.7,7.7-3.4,7.7-3.4c-0.9,7,4.8,0,4.8,0
	c0.6,7.5,4.5-2.4,4.5-2.4c-0.5,4,0.9,3.6,0.9,3.6c7.4-5.7,6.3-39.5,6.3-39.5s10.6-64.7,6.1-69.6c-1.9-2.1-6.8-14.6-12.2-29.2
	c5.5-3.7,10.2-8,10.3-11.9c0,0-2.1-1.2-4.4-2.9c1.4-0.8,2.9-1.5,4.6-2c14.9-4.8,37.3-14.9,39.8-13.3c2.4,1.6,11.2,4,11.2,4
	s6.8-39.3,10-37.3s12.2,9.2,12.2,9.2s3.4-6.8,7-9.3s24.3-11.4,24.3-11.4l8.8,4c0,0,8.4-25.9,13.7-26.7c5.2-0.8,7.4-0.6,8.4-0.8
	s3.2-15.7,3.2-15.7s13-2.4,12.4-7l7.6-1.6V740l17.3-0.8c0,0,10.6-15.3,15.3-17.3c0.4-0.2,0.7-0.2,1-0.2l1.6-4c0,0,10.4,2.2,12.8,1
	c2.4-1.2,9.4-4.4,11.4-1s6.4,5,6.4,5s8.8-29.3,26.1-29.5c0,0,6.8-23.1,15.7-21.5s10.8,8.8,22.3,7.8c0,0,4.4-4.6,7.6-11.6
	C890.9,667.9,895.1,664.5,898.3,670.3z M598.7,961l0.7,1.3c1,1.8,3.2,2.4,5,1.4l260.3-144.2c1.8-1,2.4-3.2,1.4-5l-0.7-1.3
	c-1-1.8-3.2-2.4-5-1.4L600.2,956C598.4,957,597.8,959.2,598.7,961z M602.8,982.3l81.5-45.1c1.8-1,2.4-3.2,1.4-5l-0.7-1.3
	c-1-1.8-3.2-2.4-5-1.4l-81.5,45.1c-1.8,1-2.4,3.2-1.4,5l0.7,1.3C598.8,982.7,601,983.3,602.8,982.3z M687.8,1013.7l-0.7-1.3
	c-1-1.8-3.2-2.4-5-1.4l-81.5,45.1c-1.8,1-2.4,3.2-1.4,5l0.7,1.3c1,1.8,3.2,2.4,5,1.4l81.5-45.1
	C688.1,1017.7,688.7,1015.5,687.8,1013.7z M687.8,979.2l-0.7-1.3c-1-1.8-3.2-2.4-5-1.4l-81.5,45.1c-1.8,1-2.4,3.2-1.4,5l0.7,1.3
	c1,1.8,3.2,2.4,5,1.4l81.5-45.1C688.1,983.2,688.7,981,687.8,979.2z M868.2,861.6l-0.7-1.3c-1-1.8-3.2-2.4-5-1.4L602.2,1003
	c-1.8,1-2.4,3.2-1.4,5l0.7,1.3c1,1.8,3.2,2.4,5,1.4l260.3-144.2C868.5,865.6,869.2,863.3,868.2,861.6z M580.6,929.2
	c-0.1,0.1-0.3,0.2-0.4,0.2C580.4,929.4,580.5,929.3,580.6,929.2z M900.2,296.3V577c-3.3-3.6-11.9,13.4-13.4,13.4s-15.2-2.7-15.2-2.7
	s-5.6,19.7-13.4,33.7s-26.7,6.2-26.7,6.2s-7.5,28.2-9.6,31.2s-26.3,1.5-26.3,1.5l-9.8,27.4l-19.3-1.2c0,0-2.1,1.5-9.9,6.3
	c-7.8,4.8-26.8,10.1-26.8,10.1s6.8,48.6-18.4,47.3c-25.1-1.4-25.1,23.5-25.1,23.5s-8-2.1-14.8-4.8s-6.8,4.8-6.8,4.8l-0.7-0.4
	c-12-2.8-55.4,20.5-55.4,20.5l-17.3-7.2l-9,14.1c-9.8,4-19-6.2-19.8-7.2c0-0.6,0-1.2-0.1-1.9V495.8L900.2,296.3z M612,527
	c0,12.1,5.7,22,12.6,22c7,0,12.6-9.8,12.6-22c0-12.1-5.7-22-12.6-22S612,514.9,612,527z M638.5,629.4c0-12.1-5.7-22-12.6-22
	c-7,0-12.6,9.8-12.6,22s5.7,22,12.6,22C632.9,651.4,638.5,641.5,638.5,629.4z M638.5,580c0-12.1-5.7-22-12.6-22
	c-7,0-12.6,9.8-12.6,22c0,12.1,5.7,22,12.6,22C632.9,602,638.5,592.1,638.5,580z M645.2,513.8l123.2-68.3c1.8-1,2.4-3.2,1.4-5
	l-0.7-1.3c-1-1.8-3.2-2.4-5-1.4l-123.2,68.3c-1.8,1-2.4,3.2-1.4,5l0.7,1.3C641.2,514.1,643.4,514.8,645.2,513.8z M650.5,530.2
	l117.2-64.9c1.8-1,2.4-3.2,1.4-5l-0.7-1.3c-1-1.8-3.2-2.4-5-1.4l-117.2,64.9c-1.8,1-2.4,3.2-1.4,5l0.7,1.3
	C646.5,530.5,648.7,531.2,650.5,530.2z M653,547.5l92.6-51.3c1.8-1,2.4-3.2,1.4-5l-0.7-1.3c-1-1.8-3.2-2.4-5-1.4l-92.6,51.3
	c-1.8,1-2.4,3.2-1.4,5l0.7,1.3C649,547.9,651.3,548.5,653,547.5z M739.6,551.7l-0.7-1.3c-1-1.8-3.2-2.4-5-1.4l-81.5,45.1
	c-1.8,1-2.4,3.2-1.4,5l0.7,1.3c1,1.8,3.2,2.4,5,1.4l81.5-45.1C739.9,555.7,740.6,553.4,739.6,551.7z M777,513.3l-0.7-1.3
	c-1-1.8-3.2-2.4-5-1.4L654,575.5c-1.8,1-2.4,3.2-1.4,5l0.7,1.3c1,1.8,3.2,2.4,5,1.4l117.2-64.9C777.3,517.3,777.9,515.1,777,513.3z
	 M784.6,489.6l-0.7-1.3c-1-1.8-3.2-2.4-5-1.4l-123.2,68.3c-1.8,1-2.4,3.2-1.4,5l0.7,1.3c1,1.8,3.2,2.4,5,1.4l123.2-68.3
	C785,493.6,785.6,491.4,784.6,489.6z M577.7,930.9c0.1-0.1,0.3-0.2,0.4-0.2C578,930.8,577.8,930.8,577.7,930.9z M581.5,928.7
	c0.1-0.1,0.2-0.1,0.4-0.2C581.7,928.5,581.6,928.6,581.5,928.7z M583,927.7c-0.1,0.1-0.2,0.1-0.3,0.2
	C582.8,927.8,582.9,927.8,583,927.7z M1423.7,1053c-0.5-0.1-1-0.1-1.6-0.2C1422.6,1052.8,1423.1,1052.9,1423.7,1053z M1417.4,1051.8
	c-0.5-0.1-0.9-0.2-1.4-0.3C1416.5,1051.6,1416.9,1051.7,1417.4,1051.8z M1419.7,1052.3c-0.6-0.1-1.3-0.2-1.9-0.4
	C1418.4,1052.1,1419,1052.2,1419.7,1052.3z M1419.9,1052.4c0.5,0.1,1.1,0.2,1.7,0.3C1421,1052.6,1420.5,1052.5,1419.9,1052.4z
	 M1414.1,1051c0.5,0.1,0.9,0.2,1.4,0.4C1415,1051.3,1414.6,1051.1,1414.1,1051z M1406.9,1048.7c-0.3-0.1-0.6-0.2-0.9-0.3
	C1406.3,1048.4,1406.6,1048.5,1406.9,1048.7z M1405.5,1048.1c-0.3-0.1-0.5-0.2-0.8-0.3C1405,1047.9,1405.3,1048,1405.5,1048.1z
	 M1403.3,1047.2c0.3,0.1,0.7,0.3,1,0.4C1404,1047.5,1403.6,1047.3,1403.3,1047.2z M1407.3,1048.8c0.4,0.2,0.9,0.3,1.3,0.5
	C1408.2,1049.2,1407.8,1049,1407.3,1048.8z M1409,1049.4c0.4,0.1,0.7,0.3,1.1,0.4C1409.7,1049.7,1409.4,1049.6,1409,1049.4z
	 M1411.8,1050.4c-0.4-0.1-0.8-0.2-1.2-0.4C1411,1050.1,1411.4,1050.2,1411.8,1050.4z M1449,1051.6c0.9-0.2,1.8-0.5,2.6-0.7
	C1450.7,1051.1,1449.9,1051.3,1449,1051.6z M1426.2,1053.2c-0.7-0.1-1.4-0.1-2.1-0.2C1424.8,1053.1,1425.5,1053.2,1426.2,1053.2z
	 M1400.2,1056.7L1379,1045c-2.1,7.7-4.1,13-3.7,18.2c0.8,10.5,3.6,9.7,4.6,12s12.5,9.4,12.5,9.4c-0.4,4.8-6.4,3.6-9.2,2.8l18.8,11
	C1399.8,1083.5,1399.6,1068.8,1400.2,1056.7z M1448.7,1051.6c0.1,0,0.2,0,0.3-0.1C1448.9,1051.6,1448.8,1051.6,1448.7,1051.6
	L1448.7,1051.6z M1334.7,735.7l-11.5-11.8V458.6l310.3,186.8c0,0,5.6,277.3,0,283.8s-16.7,3.9-16.7,3.9s-7.2-22.3-8.2-13.7
	s-17.3,8.5-17.3,8.5c-10.5-9.8-41.2-20.6-41.2-20.6l-8.5-7.5c0,0-6.9,9.8-13.4,9.8s-5.6-11.1-14.1-19.6s-29.1,11.5-27.5-12.4
	s-9.8-40.6-9.8-40.6c-1.6-0.2-3.2-0.4-4.6-0.7c0-3.1-0.4-6.2-1.4-8.8c17.6-9.9,6.7-35.4,6.7-35.4s-6.1-21.8-26.3-10.8
	c-20.2,11.1-11.7,26.3-11.7,26.3c-8.4-4.4-13.7,0.3-16.4,3.9c-0.6-5.1-0.9-9.7-0.9-9.7s-18.3,0-25.5-4.6s-8.5-26.2-8.5-26.2
	s-16-1-23.2-4.3s-16-33.7-16-33.7L1334.7,735.7z M1541.3,735.8c1.8,1,4,0.3,5-1.4l1.1-2c1-1.8,0.3-4-1.4-5l-128-70.9
	c-1.8-1-4-0.3-5,1.4l-1.1,2c-1,1.8-0.3,4,1.4,5L1541.3,735.8z M1547.7,747.6l-89.2-49.4c-1.8-1-4-0.3-5,1.4l-1.1,2
	c-1,1.8-0.3,4,1.4,5L1543,756c1.8,1,4,0.3,5-1.4l1.1-2C1550.1,750.8,1549.5,748.6,1547.7,747.6z M1551.6,688.6l-101.2-56
	c-1.8-1-4-0.3-5,1.4l-1.1,2c-1,1.8-0.3,4,1.4,5l101.2,56c1.8,1,4,0.3,5-1.4l1.1-2C1554.1,691.8,1553.4,689.6,1551.6,688.6z
	 M1554.4,669.8l-128-70.9c-1.8-1-4-0.3-5,1.4l-1.1,2c-1,1.8-0.3,4,1.4,5l128,70.9c1.8,1,4,0.3,5-1.4l1.1-2
	C1556.8,673,1556.2,670.7,1554.4,669.8z M1563.8,674.5c0,13.2,6.2,23.9,13.7,23.9c7.6,0,13.7-10.7,13.7-23.9s-6.2-23.9-13.7-23.9
	S1563.8,661.3,1563.8,674.5z M1562.5,732.1c0,13.2,6.2,23.9,13.7,23.9c7.6,0,13.7-10.7,13.7-23.9s-6.2-23.9-13.7-23.9
	C1568.7,708.2,1562.5,718.9,1562.5,732.1z M1562.5,785.8c0,13.2,6.2,23.9,13.7,23.9c7.6,0,13.7-10.7,13.7-23.9s-6.2-23.9-13.7-23.9
	C1568.7,761.9,1562.5,772.6,1562.5,785.8z M1421,585.8l134.5,74.5c1.8,1,4,0.3,5-1.4l1.1-2c1-1.8,0.3-4-1.4-5l-134.5-74.5
	c-1.8-1-4-0.3-5,1.4l-1.1,2C1418.6,582.6,1419.2,584.8,1421,585.8z M1405,639.2l134.5,74.5c1.8,1,4,0.3,5-1.4l1.1-2
	c1-1.8,0.3-4-1.4-5l-134.5-74.5c-1.8-1-4-0.3-5,1.4l-1.1,2C1402.5,636,1403.2,638.2,1405,639.2z M1382.4,978.4
	c-3.5,0-7.3-0.3-10.8-1.1c0,0.1,0,0.1-0.1,0.2C1375.1,978.2,1379,978.5,1382.4,978.4z M1428.3,1053.4c-0.6,0-1.3-0.1-1.9-0.1
	C1427,1053.3,1427.7,1053.4,1428.3,1053.4z M1430.5,1053.5c-0.6,0-1.1,0-1.7-0.1C1429.4,1053.5,1430,1053.5,1430.5,1053.5z
	 M1432.4,1053.5c-0.4,0-0.9,0-1.3,0C1431.5,1053.5,1431.9,1053.5,1432.4,1053.5L1432.4,1053.5z M1397.1,1043.9c0,0,0.9-3.6,1.9-8.8
	l-16.7-9.2c-0.3,3.4-0.6,6.6-1.1,9.4l19.7,10.9v-0.1C1398.4,1044.8,1397.1,1043.9,1397.1,1043.9z M1413.8,1050.9
	c-0.6-0.2-1.1-0.3-1.6-0.5C1412.7,1050.6,1413.2,1050.8,1413.8,1050.9z M1421.8,867.6c-0.1-0.1-0.1-0.1-0.2-0.2
	C1421.7,867.5,1421.8,867.6,1421.8,867.6z M1402.8,1046.9c-0.2-0.1-0.3-0.2-0.5-0.2C1402.5,1046.8,1402.7,1046.9,1402.8,1046.9z
	 M1464.7,976.6c2.1-0.3,3.9-0.5,5.6-0.7C1468.7,976.1,1466.8,976.3,1464.7,976.6z M1419.9,865.3l0.1,0.1
	C1420,865.4,1420,865.4,1419.9,865.3z M1420.7,866.3c0.1,0.1,0.1,0.1,0.2,0.2C1420.8,866.5,1420.8,866.4,1420.7,866.3z
	 M1364.3,1076.3l-40.3-23.6V804.8c0,0,4-2.8,5.3-2.8s3.7,9.4,7.4,11.8c3.7,2.4,22-8.9,22.3-8.1c0.2,0.9,5.7-0.4,13.5,16.8
	c0,0,18.8,14,26.8,30.8c0,0,1.4-1.8,5.9-3.3c0,0.2-0.1,0.5-0.1,0.7c-0.5,9.3,10.9,9.4,10.9,9.4s0.9,1.3,2.4,3.4l0,0
	c0.7,7.2,2.1,24.3,0.8,30.1c-1.4-0.1-2.7,0-2.7,0s-33.4,17.6-35.2,18.5c-1.8,0.9-7.7,17.5-8.5,20.6c-0.3,1.1-2,5.8-4.2,11.5
	c-2.3-3-5.2-4.8-8.3-4.8c-7.6,0-13.7,10.7-13.7,23.9s6.2,23.9,13.7,23.9c0.4,0,0.7,0,1.1-0.1c-1.5,3.5-2.7,6-3.5,6.8
	c-0.5,0.5-0.8,1.7-0.9,3.4c-6.6,1.7-11.7,11.6-11.7,23.6c0,13.2,6.2,23.9,13.7,23.9c0.7,0,1.4-0.1,2.1-0.3c1.5,10.8,2.9,19,2.9,19
	S1364,1069.3,1364.3,1076.3z M1346.7,909.7c0,13.2,6.2,23.9,13.7,23.9c7.6,0,13.7-10.7,13.7-23.9s-6.2-23.9-13.7-23.9
	C1352.8,885.8,1346.7,896.5,1346.7,909.7z M1514.7,1047c-4.4-5.2-9.9-12.1-9.8-14.6c0-0.3-0.2-0.7-0.5-1.2l-20.9-11.5
	c1.6,5.6,3.2,10.7,3.4,10.7c0.1,0-0.1,0.4-0.6,1L1514.7,1047z M1473.7,975.6c-1,0.1-2.1,0.2-3.4,0.3
	C1471.6,975.8,1472.7,975.7,1473.7,975.6L1473.7,975.6z M1476.1,1040.2c-0.1,0-0.1,0.1-0.2,0.1
	C1476,1040.3,1476.1,1040.3,1476.1,1040.2z M1419.2,864.5C1419.2,864.4,1419.2,864.4,1419.2,864.5
	C1419.2,864.4,1419.2,864.4,1419.2,864.5z M1477.3,1039.4C1477.3,1039.4,1477.3,1039.5,1477.3,1039.4
	C1477.3,1039.5,1477.3,1039.4,1477.3,1039.4z M1474.6,1041.2c0.1-0.1,0.2-0.1,0.3-0.2C1474.8,1041.1,1474.7,1041.2,1474.6,1041.2z
	 M1575.2,1016.7c-5-4.4-2.2,2.2-10.3,3.3s-7-2-7-2c-2.6-23.6-8.5-31.2-8.5-29.7s-10.7,7-10.7,7s-0.9-1.5-2.6-5.2
	s-19.9-13.3-23.8-14.8s-13.1,5.2-12.4,3.3c0.7-2-8.5-18.8-8.7-22.5s-10.9-2.2-10.9-2.2c-1.8-1.4-2.5-4.5-2.7-7.5
	c-2,1.5-4.2,2.8-6.8,3.8l-2.4-15.5l0,0l2.4,15.5c0,0,0.1,0.7,0.3,1.9c8.2,10.4,25.2,32.5,26.6,38.5c1.8,7.8,20,33.1,20,33.1
	s17.1,4.4,19.9,3.6s1.4,7.4-11.8,5c0,0,15.6,16.5,20.5,18.5s1,3.8-6.2,1.7c0,0,5.6,6.6,3.1,6.5c-2.6-0.1-10.1-4.4-10.1-4.4
	s6.5,8.9,3.6,8.2c-1-0.3-2.3-1-3.4-1.9c-0.1,0.1-0.1,0.3-0.2,0.4l-1.1,2c0,0,0,0.1-0.1,0.1c0,0.7-0.2,1.2-0.8,1.4
	c-0.2,0-0.4,0-0.6,0c-1.1,0.6-2.4,0.6-3.5,0l-48-26.6c-0.2,0.1-0.4,0.3-0.6,0.5l0,0c0.2,3.1,0.4,6.2,0.4,9.3l12,6.6
	c1.8,1,2.4,3.2,1.4,5l-1.1,2c-1,1.8-3.2,2.4-5,1.4l-7.3-4.1c-0.1,3.1-0.2,6.1-0.4,9.2l36.4,20.2c1.8,1,2.4,3.2,1.4,5l-1.1,2
	c-1,1.8-3.2,2.4-5,1.4l-32.5-18c-0.3,3.2-0.6,6.3-1,9.5l39,21.6c1.8,1,2.4,3.2,1.4,5l-1.1,2c-1,1.8-3.2,2.4-5,1.4l-35.8-19.8
	c-2.2,14.7-4.9,28.1-7.3,38.6l167.3,97.8v-199.9l-14.4,9.6C1612.6,1028.1,1580.3,1021.1,1575.2,1016.7z M1472,1042.7
	c-0.2,0.1-0.3,0.2-0.5,0.3C1471.7,1042.9,1471.8,1042.8,1472,1042.7z M1473.5,1041.9c-0.1,0.1-0.2,0.1-0.4,0.2
	C1473.2,1042,1473.3,1042,1473.5,1041.9z M1478.9,1002.3c0,0.2,0.1,0.4,0.1,0.5c0.3,1.7,0.6,3,0.8,3.7l0,0l7.5,4.2
	c-2.8-3.1-5.7-6.3-8.6-9.4C1478.8,1001.6,1478.8,1002,1478.9,1002.3z M1384.7,1000c1-1.8,3.2-2.4,5-1.4l13.2,7.3c0-0.1,0-0.1,0-0.2
	c0-0.8,0-1.6,0-2.5c0-0.6,0-1.3,0-1.9c0-0.7,0-1.3,0-2c0-1,0.1-2.1,0.1-3.2l-10.5-5.8c-1.8-1-2.4-3.2-1.4-5l1.1-2
	c1-1.8,3.2-2.4,5-1.4l6.2,3.4c0-3.2,0-6.7-0.3-10.3l-7.7-4.3c-1.1,3.2-1.9,6-1.8,7c0,0-2.7,0.4-6.7,0.6c-3.1,6.8-5.4,13.1-5.5,14.9
	c-0.4,4,1.1,18.6,1.1,18.6c0.1,2.1,0.1,4.1,0.1,6c1.1-1.1,2.8-1.3,4.3-0.5l14,7.8c0.5-2.9,1-5.8,1.3-8.7l-17.2-9.5
	c-1.8-1-2.4-3.2-1.4-5L1384.7,1000z M1445.3,979.9c-1.8,0.4-3.6,0.8-5.4,1.3C1441.7,980.7,1443.5,980.3,1445.3,979.9z
	 M1452.4,1050.6c0.6-0.2,1.1-0.3,1.7-0.5C1453.6,1050.3,1453,1050.5,1452.4,1050.6z M1400.2,957.7c0,0-0.6,1.6-1.5,3.9l2.8,1.5
	C1401.1,961.4,1400.7,959.5,1400.2,957.7z M1401.4,1046.3c0.1,0.1,0.3,0.1,0.4,0.2C1401.7,1046.4,1401.6,1046.3,1401.4,1046.3z
	 M1457.6,1049c0.4-0.1,0.8-0.3,1.2-0.4C1458.4,1048.8,1458,1048.9,1457.6,1049z M1456.5,1049.4c-0.5,0.1-0.9,0.3-1.4,0.4
	C1455.6,1049.7,1456.1,1049.5,1456.5,1049.4z M1423.8,869.9C1423.8,869.9,1423.8,869.8,1423.8,869.9
	C1423.8,869.8,1423.8,869.9,1423.8,869.9z M1465.3,832.1c0.5,0.9,1,2,1.5,3.2c0.3,0.1,0.6,0.1,1,0.2c-0.6-1.5-1.2-2.8-1.8-3.9
	C1465.8,831.7,1465.6,831.9,1465.3,832.1z M1423.1,857.4c-1.2-0.2-3-1.3-5-5c-0.2-0.4-0.5-0.8-0.7-1.2c-0.4-0.2-0.8-0.3-1.2-0.5
	c0.3,0.5,0.6,1.1,1,1.7C1419.8,857.2,1422,857.6,1423.1,857.4z M1459.3,883.9v-0.5c-2,1.4-4.5,2.2-7.3,2.3
	C1454.8,885.7,1457.3,885.1,1459.3,883.9z M1466.2,933c-1.1-0.2-2.3-0.4-3.4-0.5C1463.9,932.7,1465,932.8,1466.2,933z M1458.8,932.4
	c0.5,0,1,0,1.5,0C1459.8,932.4,1459.3,932.4,1458.8,932.4z M1422.7,868.6l0.1,0.1C1422.8,868.7,1422.7,868.6,1422.7,868.6z
	 M1437.5,881.4L1437.5,881.4c0.6,2.2,1.1,4.4,1.4,6.5c1.1-0.6,2.4-1.4,3.9-2.1c4.7,13.9,2,18.3-2.9,18.5c5.5,0.3,8.8-3.9,3.5-19.2
	c0,0,0.4-0.1,1.2-0.4C1442.3,883.9,1439.8,882.8,1437.5,881.4z"></path>
<path id="color_x5F_6" fill="#928666" d="M532.4,1097.5c-0.3-0.2-0.5-0.3-0.8-0.5C531.9,1097.2,532.2,1097.3,532.4,1097.5z
	 M528.1,855.4c0.2-0.6,0.4-1.3,0.5-1.9C528.5,854.1,528.3,854.7,528.1,855.4z M529.7,1095.7c0.4,0.3,0.7,0.5,1.1,0.7
	C530.4,1096.2,530.1,1095.9,529.7,1095.7z M528,997.9C528.1,997.9,528.1,997.9,528,997.9C528.1,997.9,528.1,997.9,528,997.9z
	 M528,855.7c-0.2,0.6-0.4,1.3-0.6,1.9C527.7,856.9,527.9,856.3,528,855.7z M527.6,1094.2c0.4,0.3,0.9,0.6,1.3,0.9
	C528.4,1094.8,528,1094.5,527.6,1094.2z M527.4,857.9c-0.2,0.6-0.4,1.2-0.6,1.8C527,859.1,527.2,858.5,527.4,857.9z M530.8,997.6
	L530.8,997.6L530.8,997.6z M527,1018.6L527,1018.6c5.1-0.8,10.5-2.3,16.2-4.6l0,0C537.4,1016.3,532,1017.8,527,1018.6z M526.6,860.1
	L526.6,860.1V860V860.1z M541.8,993.4L541.8,993.4L541.8,993.4z M537.9,995.6L537.9,995.6L537.9,995.6z M535.8,996.4
	C535.7,996.4,535.7,996.4,535.8,996.4C535.7,996.4,535.7,996.4,535.8,996.4z M533.3,997.1C533.3,997.1,533.4,997.1,533.3,997.1
	C533.4,997.1,533.3,997.1,533.3,997.1z M540,994.6L540,994.6L540,994.6z M532.6,823.6c0-0.4,0-0.8,0-1.1
	C532.6,822.8,532.6,823.2,532.6,823.6z M532.6,816.8c0,0,0,0.1,0,0.3C532.6,816.9,532.6,816.8,532.6,816.8z M532.6,817.4
	c0-0.1,0-0.2,0-0.3C532.6,817.2,532.6,817.3,532.6,817.4z M532.6,818.3c0,0.2,0,0.4,0,0.6C532.6,818.7,532.6,818.5,532.6,818.3z
	 M540.4,728.9c0,0-3,9.2-6.6,8s-7.4-6-7.4-6l0.1,33.9c0.3,0.1,0.6,0.2,0.9,0.3c5.9,2.2,11.2,4,15.9,5.9v-51.7l-2.4-0.1L540.4,728.9z
	 M526.3,462.5v200.2l10.6,2l0.8,8.6h3.4l-1,6.4h3V482.6l66.3-38.9l4,7.2l8.4-4c0,0-1.2,9.2,1.2,6.4c0.9-1.1,7.3-1.7,14.8-2
	l-75.5,44.6l97.1-57.3c-1.1-2.7-2.2-5.1-2.8-6.4c2.4-0.7,10.2-11.8,10.2-11.8l15.3-2c6.4-10.6,19.3-13.3,19.3-13.3l0.4-18.1
	l162.4-98.6v-20.7L526.3,462.5z M532.6,819.8c0-0.2,0-0.5,0-0.7C532.6,819.3,532.6,819.6,532.6,819.8z M532.6,817.6
	c0,0.1,0,0.3,0,0.4C532.6,817.9,532.6,817.8,532.6,817.6z M532.6,820.9c0-0.3,0-0.6,0-0.8C532.6,820.4,532.6,820.6,532.6,820.9z
	 M532.4,826.7c0-0.5,0-0.9,0.1-1.4C532.5,825.8,532.5,826.2,532.4,826.7z M532.3,828.5c0-0.5,0.1-1,0.1-1.5
	C532.4,827.4,532.4,827.9,532.3,828.5z M532.3,828.6c-0.4,6.4-1.3,14.5-3.1,22.5C531.1,843.1,531.9,834.9,532.3,828.6z M532.5,825.1
	c0-0.4,0-0.8,0-1.2C532.5,824.3,532.5,824.7,532.5,825.1z M528.7,853.2c0.2-0.7,0.3-1.4,0.5-2C529,851.9,528.9,852.6,528.7,853.2z
	 M532.6,821.2c0,0.3,0,0.6,0,1C532.6,821.9,532.6,821.5,532.6,821.2z M1541.1,900.4c0.1-0.1,0.1-0.2,0.2-0.3l0,0
	C1541.2,900.2,1541.2,900.3,1541.1,900.4C1541.1,900.3,1541.1,900.4,1541.1,900.4z M1541.4,899.9L1541.4,899.9l-0.1,0.1l0,0
	C1541.3,900,1541.4,900,1541.4,899.9z M1359.5,760.7L1359.5,760.7L1359.5,760.7L1359.5,760.7z M1609.1,917.8
	c0.1-0.2,0.3-0.3,0.4-0.3C1609.4,917.5,1609.2,917.6,1609.1,917.8z M1540.6,901L1540.6,901c0.1-0.1,0.1-0.2,0.2-0.2l0,0
	C1540.7,900.9,1540.6,900.9,1540.6,901z M1540.8,900.7c0.1-0.1,0.2-0.2,0.2-0.3l0,0C1541,900.5,1540.9,900.6,1540.8,900.7
	L1540.8,900.7z M1540.2,901.4L1540.2,901.4c0.1-0.1,0.2-0.2,0.2-0.3l0,0C1540.4,901.3,1540.3,901.3,1540.2,901.4z M1661.1,866
	l0.4-9.4c-1.4,1.3-6.1,0.4-9.8-0.5v348.2l21.4,10.2V868.4l-5.5,5.5L1661.1,866z M1359.5,430.7v24.7l149.3,88.9l-0.3,16.4
	c10.5,2.6,17.3,12.1,17.3,12.1l15.4,1l1,6.9l6.9,4.3l-1.4,8.9l21.1,12.7l10.8-1.2l1-4.9l8.5,2.6l6.9-6.3l55.9,36.7v187l7-1.5v-5.2
	h3.7l0.2-9.2l12.4-1.1V616.6L1359.5,430.7z M1429.6,824.5c-0.8,0.1-1.4,0.1-2,0.1C1428.1,824.6,1428.8,824.6,1429.6,824.5z
	 M1541.5,899.9C1541.5,899.8,1541.5,899.8,1541.5,899.9c0.1-0.1,0.1-0.1,0.1-0.1l0,0l0,0C1541.6,899.8,1541.5,899.8,1541.5,899.9
	C1541.4,899.9,1541.5,899.9,1541.5,899.9z M1540.1,901.6L1540.1,901.6c-0.1,0.1-0.2,0.3-0.4,0.4
	C1539.9,901.9,1540,901.7,1540.1,901.6z M1437.9,1053.3c-0.6,0-1.2,0.1-1.7,0.1C1436.8,1053.4,1437.4,1053.4,1437.9,1053.3z
	 M1441.1,1053c0.7-0.1,1.5-0.2,2.2-0.3C1442.5,1052.8,1441.8,1052.9,1441.1,1053z M1440.9,1053.1c-0.8,0.1-1.6,0.2-2.3,0.2
	C1439.4,1053.2,1440.1,1053.1,1440.9,1053.1z M1435.6,1053.5c-0.7,0-1.4,0-2.1,0.1C1434.2,1053.5,1434.9,1053.5,1435.6,1053.5z
	 M1490.9,1054.6l-12-6.6c0.1,3.6,0.1,7.3,0,11l7.3,4.1c1.8,1,4,0.3,5-1.4l1.1-2C1493.3,1057.8,1492.6,1055.6,1490.9,1054.6z
	 M1515.2,1095.2l1.1-2c1-1.8,0.3-4-1.4-5l-36.4-20.2c-0.2,3.5-0.5,7-0.8,10.5l32.5,18C1512,1097.6,1514.2,1097,1515.2,1095.2z
	 M1459.9,1048.2c0.4-0.1,0.8-0.3,1.1-0.4C1460.7,1047.9,1460.3,1048.1,1459.9,1048.2z M1445.8,1052.3c-0.6,0.1-1.2,0.2-1.8,0.3
	C1444.6,1052.5,1445.2,1052.4,1445.8,1052.3z M1487.3,1010.7l-7.5-4.2c0.9,2.9,2.4,8.2,3.8,13.1l20.9,11.5
	C1502.5,1027.8,1495.3,1019.6,1487.3,1010.7z M1463.1,1047c-0.3,0.1-0.7,0.3-1,0.4C1462.4,1047.3,1462.8,1047.1,1463.1,1047z
	 M1433.3,1053.5c-0.3,0-0.6,0-0.9,0l0,0C1432.7,1053.5,1433,1053.6,1433.3,1053.5z M1448.7,1051.6L1448.7,1051.6
	c-0.7,0.2-1.5,0.3-2.2,0.5C1447.2,1052,1448,1051.8,1448.7,1051.6z M1577.6,698.4c7.6,0,13.7-10.7,13.7-23.9s-6.2-23.9-13.7-23.9
	c-7.6,0-13.7,10.7-13.7,23.9S1570,698.4,1577.6,698.4z M1405,639.2l134.5,74.5c1.8,1,4,0.3,5-1.4l1.1-2c1-1.8,0.3-4-1.4-5
	l-134.5-74.5c-1.8-1-4-0.3-5,1.4l-1.1,2C1402.5,636,1403.2,638.2,1405,639.2z M1381.2,1035.2c-0.6,3.7-1.4,6.9-2.2,9.8l21.1,11.7
	c0.2-3.8,0.4-7.4,0.7-10.6L1381.2,1035.2z M1398.7,961.6c-1,2.6-2.3,6-3.3,9.1l7.7,4.3c-0.3-3.7-0.8-7.7-1.6-11.9L1398.7,961.6z
	 M1386.9,1017.4c-1.4-0.8-3.1-0.5-4.3,0.5c0,2.8-0.1,5.5-0.3,7.9l16.7,9.2c0.6-2.9,1.3-6.4,1.9-9.9L1386.9,1017.4z M1397.2,981.9
	c-1.8-1-4-0.3-5,1.4l-1.1,2c-1,1.8-0.3,4,1.4,5l10.5,5.8c0.1-3.4,0.3-7,0.4-10.8L1397.2,981.9z M1515.7,1109.7l-39-21.6
	c-0.4,3.5-0.9,6.9-1.4,10.2l35.8,19.8c1.8,1,4,0.3,5-1.4l1.1-2C1518.1,1112.9,1517.4,1110.7,1515.7,1109.7z M1529.7,1057.8
	c0,0,2.2,3.6,2.3,5.7l0.1-0.1l1.1-2c0.1-0.1,0.1-0.3,0.2-0.4C1531.4,1059.5,1529.7,1057.8,1529.7,1057.8z M1547.7,747.6l-89.2-49.4
	c-1.8-1-4-0.3-5,1.4l-1.1,2c-1,1.8-0.3,4,1.4,5L1543,756c1.8,1,4,0.3,5-1.4l1.1-2C1550.1,750.8,1549.5,748.6,1547.7,747.6z
	 M1520.1,1053.1c0,0-2.4-2.7-5.4-6.1l-28.4-15.7c-1,1.3-3.3,3.9-7.3,6.9l48,26.6c1.1,0.6,2.5,0.6,3.5,0
	C1527.6,1063.8,1520.1,1053.1,1520.1,1053.1z M1551.6,688.6l-101.2-56c-1.8-1-4-0.3-5,1.4l-1.1,2c-1,1.8-0.3,4,1.4,5l101.2,56
	c1.8,1,4,0.3,5-1.4l1.1-2C1554.1,691.8,1553.4,689.6,1551.6,688.6z M1576.2,708.2c-7.6,0-13.7,10.7-13.7,23.9s6.2,23.9,13.7,23.9
	c7.6,0,13.7-10.7,13.7-23.9C1590,718.9,1583.8,708.2,1576.2,708.2z M1554.4,669.8l-128-70.9c-1.8-1-4-0.3-5,1.4l-1.1,2
	c-1,1.8-0.3,4,1.4,5l128,70.9c1.8,1,4,0.3,5-1.4l1.1-2C1556.8,673,1556.2,670.7,1554.4,669.8z M1576.2,761.9
	c-7.6,0-13.7,10.7-13.7,23.9s6.2,23.9,13.7,23.9c7.6,0,13.7-10.7,13.7-23.9S1583.8,761.9,1576.2,761.9z M1464.2,1046.5
	c0.3-0.1,0.6-0.3,0.9-0.4C1464.8,1046.3,1464.5,1046.4,1464.2,1046.5z M1560.2,651.9l-134.5-74.5c-1.8-1-4-0.3-5,1.4l-1.1,2
	c-1,1.8-0.3,4,1.4,5l134.5,74.5c1.8,1,4,0.3,5-1.4l1.1-2C1562.6,655.1,1561.9,652.9,1560.2,651.9z M1359.1,1044.9
	c0.7,0,1.4-0.1,2.1-0.3c-2.3-16.3-5.1-38.6-4.2-47.2c-6.6,1.7-11.7,11.6-11.7,23.6C1345.4,1034.2,1351.5,1044.9,1359.1,1044.9z
	 M1470.4,1043.6c-0.2,0.1-0.4,0.2-0.6,0.3C1470,1043.8,1470.2,1043.7,1470.4,1043.6z M1468.1,1044.8c0.2-0.1,0.5-0.2,0.7-0.3
	C1468.5,1044.6,1468.3,1044.7,1468.1,1044.8z M1466.2,1045.7c0.3-0.1,0.5-0.2,0.8-0.4C1466.7,1045.4,1466.4,1045.5,1466.2,1045.7z
	 M1384.7,1000l-1.1,2c-1,1.8-0.3,4,1.4,5l17.2,9.5c0.5-3.9,0.8-7.6,0.7-10.6l-13.2-7.3C1387.9,997.6,1385.7,998.2,1384.7,1000z
	 M1546.3,734.3l1.1-2c1-1.8,0.3-4-1.4-5l-128-70.9c-1.8-1-4-0.3-5,1.4l-1.1,2c-1,1.8-0.3,4,1.4,5l128,70.9
	C1543,736.7,1545.3,736.1,1546.3,734.3z M1360.4,987.3c0.4,0,0.7,0,1.1-0.1c1.3-3.1,2.9-6.9,4.6-11.3c1.7,0.7,3.5,1.2,5.5,1.6
	c0-0.1,0-0.1,0.1-0.2c-5.6-1.3-10.5-3.8-12.1-8.8c0,0,5.3-13.7,9.2-24.2c-2.3-3-5.2-4.8-8.3-4.8c-7.6,0-13.7,10.7-13.7,23.9
	S1352.8,987.3,1360.4,987.3z M1360.4,933.6c7.6,0,13.7-10.7,13.7-23.9s-6.2-23.9-13.7-23.9c-7.6,0-13.7,10.7-13.7,23.9
	S1352.8,933.6,1360.4,933.6z M651.7,600.4c1,1.8,3.2,2.4,5,1.4l81.5-45.1c1.8-1,2.4-3.2,1.4-5l-0.7-1.3c-1-1.8-3.2-2.4-5-1.4
	l-81.5,45.1c-1.8,1-2.4,3.2-1.4,5L651.7,600.4z M777,513.3l-0.7-1.3c-1-1.8-3.2-2.4-5-1.4L654,575.5c-1.8,1-2.4,3.2-1.4,5l0.7,1.3
	c1,1.8,3.2,2.4,5,1.4l117.2-64.9C777.3,517.3,777.9,515.1,777,513.3z M640.2,512.4c1,1.8,3.2,2.4,5,1.4l123.2-68.3
	c1.8-1,2.4-3.2,1.4-5l-0.7-1.3c-1-1.8-3.2-2.4-5-1.4l-123.2,68.3c-1.8,1-2.4,3.2-1.4,5L640.2,512.4z M648.1,546.1
	c1,1.8,3.2,2.4,5,1.4l92.6-51.3c1.8-1,2.4-3.2,1.4-5l-0.7-1.3c-1-1.8-3.2-2.4-5-1.4l-92.6,51.3c-1.8,1-2.4,3.2-1.4,5L648.1,546.1z
	 M654.3,560.1l0.7,1.3c1,1.8,3.2,2.4,5,1.4l123.2-68.3c1.8-1,2.4-3.2,1.4-5l-0.7-1.3c-1-1.8-3.2-2.4-5-1.4l-123.2,68.3
	C653.9,556.1,653.3,558.4,654.3,560.1z M650.5,530.2l117.2-64.9c1.8-1,2.4-3.2,1.4-5l-0.7-1.3c-1-1.8-3.2-2.4-5-1.4l-117.2,64.9
	c-1.8,1-2.4,3.2-1.4,5l0.7,1.3C646.5,530.5,648.7,531.2,650.5,530.2z M625.9,558c-7,0-12.6,9.8-12.6,22c0,12.1,5.7,22,12.6,22
	c7,0,12.6-9.8,12.6-22C638.5,567.9,632.9,558,625.9,558z M687,1012.4c-1-1.8-3.2-2.4-5-1.4l-81.5,45.1c-1.8,1-2.4,3.2-1.4,5l0.7,1.3
	c1,1.8,3.2,2.4,5,1.4l81.5-45.1c1.8-1,2.4-3.2,1.4-5L687,1012.4z M625.9,607.4c-7,0-12.6,9.8-12.6,22s5.7,22,12.6,22
	c7,0,12.6-9.8,12.6-22S632.9,607.4,625.9,607.4z M868.2,861.6l-0.7-1.3c-1-1.8-3.2-2.4-5-1.4L602.2,1003c-1.8,1-2.4,3.2-1.4,5
	l0.7,1.3c1,1.8,3.2,2.4,5,1.4l260.3-144.2C868.5,865.6,869.2,863.3,868.2,861.6z M597.1,979.6l0.7,1.3c1,1.8,3.2,2.4,5,1.4
	l81.5-45.1c1.8-1,2.4-3.2,1.4-5l-0.7-1.3c-1-1.8-3.2-2.4-5-1.4l-81.5,45.1C596.7,975.6,596.1,977.8,597.1,979.6z M687,977.9
	c-1-1.8-3.2-2.4-5-1.4l-81.5,45.1c-1.8,1-2.4,3.2-1.4,5l0.7,1.3c1,1.8,3.2,2.4,5,1.4l81.5-45.1c1.8-1,2.4-3.2,1.4-5L687,977.9z
	 M624.7,549c7,0,12.6-9.8,12.6-22c0-12.1-5.7-22-12.6-22c-7,0-12.6,9.8-12.6,22C612,539.1,617.7,549,624.7,549z M599.5,962.3
	c1,1.8,3.2,2.4,5,1.4l260.3-144.2c1.8-1,2.4-3.2,1.4-5l-0.7-1.3c-1-1.8-3.2-2.4-5-1.4L600.2,956c-1.8,1-2.4,3.2-1.4,5L599.5,962.3z"></path>
<path id="color_x5F_5" fill="#FFD2BB" stroke="#F8C09C" stroke-miterlimit="10" d="M626.5,1216.4c-3.3,14.2-8.7,7.4-12,15.8
	s-11.7,36.9-38.8,29.8c0,0-0.5-10.6,6.3-19.9s8.2-28.7,6-35.2c-1.8-5.5-34.8-31.4-46.3-44.7c0.9,11.7,0.8,24.4-0.4,27.8
	c-2,5.8-12.4,45.9-11.1,53.4c0,0-2.3,11.8-0.9,15.2c1.3,3.4,5.5,14.5,5.5,20s0.6,9.7-7,12.5s-13,1.7-25.7,13.8
	c-12.7,12.1-27.2,3-27.2,3s-2.8-5.8,0.5-9.4s28.6-24.9,28.9-28s3.1-5.9,3-8.9s0.8-55.8,0.8-55.8l1.3-64.7c0,0-0.1-5.6-0.2-12.9
	c-2.8-2.2-6.6-6.5-11.6-14.6c-2.6-4.2-4.9-10.9-7-18.8c9.2-3.4,14.3-17.7,34.2-2.5c4.9,3.8,9.3,6.6,13,8.6c-1.1,5.4-1.8,8.8-1.8,8.8
	s-0.1,0.8-0.2,2.2c1.6,4.1,4.7,9.4,10.9,14c12.3,9,23.2,16.7,30.6,34.7c7.4,18,20.8,35.2,26.2,37.1S629.7,1202.2,626.5,1216.4z
	 M484.4,952.1c0,0,7.8-17.9-2-27.1c-8.2,9.5-22.6,26.9-24,31.8c-1.9,7-19.2,28.9-19.2,28.9s-15.6,3.3-18,2.5s-1.5,6.6,10.4,4.9
	c0,0-14.6,14.2-19.1,15.8s-1.1,3.4,5.5,1.8c0,0-5.3,5.7-3,5.7s9.3-3.5,9.3-3.5s-6.1,7.8-3.5,7.2c2.6-0.5,6.6-4.2,6.6-4.2
	s-3.8,5.6-1.6,6.3c2.2,0.7,10.4-10.1,10.4-10.1s14.3-14.3,14.5-18c0.1-2.5,19.5-21.8,32-33.9L484.4,952.1z M507.9,997.2
	c-16.4-1.9-25.6-11.8-28.9-16.2c-1.8,12.2-1.6,24.9-1.6,24.9s0,0.1,0,0.4l0.4-1.5c0,0,28.3,29.9,75.6,4.5c-0.6-5.1-1.3-9.3-1.8-12.6
	c-0.6-3.9-2.3-7-4-10.1C541.7,997.9,528.8,999.6,507.9,997.2z M572.4,1049.2c-0.6,9.2-8,13.6-6.5,18.3c1.5,4.7,7.7-3.4,7.7-3.4
	c-0.9,7,4.8,0,4.8,0c0.6,7.5,4.5-2.4,4.5-2.4c-0.5,4,0.9,3.6,0.9,3.6c7.4-5.7,6.3-39.5,6.3-39.5s10.6-64.7,6.1-69.6
	c-1.9-2.1-6.8-14.6-12.2-29.2c-6.3,4.3-13.8,7.7-16.8,9.1c5.1,7.9,9.5,16.3,9.7,18.5c0.4,4-1.1,18.6-1.1,18.6
	c-1.3,29.9,3.9,41.7,3.1,52.2c-0.8,10.5-3.6,9.7-4.6,12c-0.7,1.7-7.6,6.3-10.8,8.3c0,1.3-0.1,2.6-0.2,3.9
	C566.2,1051.6,572.4,1049.2,572.4,1049.2z M499.5,846.4c-0.1,0.2-0.1,0.4-0.2,0.7c1.9,0.7,4.1,1,6.5,0.9c3.7-0.2,7.3-1.4,10.6-3.2
	c-0.6,2.3-0.5,4.8-0.8,6.1c-3.7-0.3-3.5-0.3-3.5-0.3s0.2,6.5,0.2,8.7s0.1,11.1,8.2,10.5c0.5,0,1.1-0.1,1.7-0.2
	c11.3-18.9,10.4-52.8,10.4-52.8c-24,0.5-38.2-24.7-38.2-24.7c0.1,7.5-6.1,14.3-6.1,14.3s-0.6,14.4,0.9,25.2S499.5,846.4,499.5,846.4
	z M1546.4,1050.7c-4-1.6-14.9-12.8-19-16.9c-0.5-0.5-0.1-1.3,0.6-1.3c11.1,1.2,12.3-6,9.6-5.3c-2.6,0.7-17.5-3-19.6-3.5
	c-0.2,0-0.3-0.1-0.4-0.3c-1.8-2.5-18.2-25.5-19.8-32.9c-1.3-5.8-17.5-26.9-25.9-37.6c-0.5-0.6-1.5-0.2-1.3,0.6
	c0.6,4.5,1.9,13,3.2,22c0.1,0.6,0.2,1.2,0.3,1.7c0.1,0.4,0.1,0.8,0.2,1.3c0.2,1.3,0.4,2.5,0.6,3.7c0.1,0.4,0.1,0.8,0.2,1.2
	c0.4,2.9,0.9,5.7,1.3,8.3c0.1,0.5,0.2,1.1,0.3,1.6c0.4,2.4,0.8,4.6,1.1,6.5c0,0.1,0.1,0.3,0.2,0.4c12.6,13.5,27.2,29.7,27.2,32.1
	c0,4,14.4,19.9,15.2,20.7c0,0,0,0,0.1,0.1c0.5,0.7,8.6,12.3,11,11.7c1.2-0.3,0.9-2,0.2-3.6c-0.3-0.7,0.6-1.3,1.2-0.9
	c1.3,1,2.9,2.1,4.1,2.4c1.8,0.5-0.2-3.1-1.9-5.7c-0.4-0.6,0.3-1.4,1-1.1c2.4,1.3,5.9,2.9,7.4,2.9c1.7,0.1-0.2-2.8-1.7-4.8
	c-0.4-0.6,0.1-1.3,0.8-1.2C1548.1,1054.2,1550.8,1052.6,1546.4,1050.7z M1449.9,1308.1c-0.3-3.1-3.1-5.9-3-8.9c0-0.1,0-0.4,0-0.7
	c0-0.5-0.5-0.9-1-0.7c-11.4,3.7-17.6,2.9-21.1,1c-0.4-0.2-0.9,0-1.1,0.4c-1.8,4.8-4.4,12.7-4.4,17c0,5.4-0.6,9.7,7,12.5
	s13,1.7,25.7,13.8c11.8,11.2,25.2,4.1,27,3.1c0.1-0.1,0.2-0.2,0.3-0.4c0.5-1.1,2.3-6-0.6-9.2
	C1475.5,1332.5,1450.2,1311.2,1449.9,1308.1z M1420.1,865.5c-2-2.5-3.3-4.4-3.8-5.1c-0.1-0.2-0.3-0.3-0.6-0.3
	c-1.9-0.1-11-1.1-10.6-9.4c0.3-5.3,3.3-5.3,5.8-4.3c0.1,0.1,0.2,0.1,0.3,0.3c0.4,0.5,0.7,0.9,0.8,0.8c0.1,0,0.3-0.2,0.6-0.3
	c1,0.5,1.7,1,1.6,0.9c0-0.1,0-0.2-0.1-0.2c0.7,0.7,1.7,2,3,4.5c2.2,4.3,4.2,5.1,5.4,5.1c0.6,0,0.9-0.6,0.7-1.1
	c-1.4-2.6-5.1-10.3-0.1-12c4.5-1.5,5.5-5.2,5.7-7c0.1-0.5,0.5-0.8,1-0.6c11.1,3.3,18.7-1.4,20.1-2.3c0.2-0.1,0.4-0.1,0.5-0.1
	c7.2,1.3,11.4-0.4,13.8-2.2c0.4-0.3,0.9-0.2,1.1,0.2c1,1.8,1.9,4.3,2.6,6.9v0.1c0.1,0.6,0.2,1.2,0.2,1.8c2,22-0.3,45.6-18.3,44.5
	c-4.5-0.3-8.8-2-12.8-4.4l0,0c0.2,0.1,0.3,0.3,0.3,0.4c0.5,1.7,0.9,3.5,1.2,5.1c0.1,0.5,0.7,0.8,1.1,0.5c0.7-0.4,1.4-0.8,2.2-1.2
	c0.4-0.2,0.9,0,1.1,0.4c10.6,32.4-21,10.6-21.3,8.6c-0.1-0.7-0.9-1.1-1.9-1.3c-0.4-0.1-0.7-0.5-0.6-0.9c0.9-5.7,0-19.2-0.7-27
	C1418.7,865.3,1419.6,864.9,1420.1,865.5z M1434.6,879.5L1434.6,879.5L1434.6,879.5z M1366.2,1244.6c0.2-0.6,0.7-1.3,1.5-2.3
	c-0.3,0.3-0.6,0.5-0.8,0.6c-0.2,0.2-0.4,0.2-0.7,0.1c-8.3-2.4-13.5-9-16.3-13.7c-0.2-0.4-0.7-0.5-1-0.3c-1.6,0.9-2.9,1.6-3.8,1.9
	c-5.5,1.9-20.7,8.9-17.4,23.1s8.7,7.4,12,15.8s2.3,40.4,38.2,29.9c0.3-0.1,0.6-0.4,0.6-0.7c0-2.3-0.4-11.4-6.3-19.4
	C1365.4,1270.5,1364.1,1251.1,1366.2,1244.6z M1392,1084.4c-2.1-1.3-11.3-7.1-12.1-9.2c-1-2.3-3.8-1.5-4.6-12
	c-0.8-10.5,8.5-21.4,7.2-51.3l0,0c-0.1-0.6-1.5-14.7-1.1-18.6c0.2-1.7,2.3-7.5,5.1-13.8c0.2-0.5-0.2-1.1-0.7-1.1
	c-5.5,0.3-13.1,0.1-19-2.2c-0.4-0.2-0.8,0-1,0.4c-3.5,9.1-6.4,15.9-7.8,17.4c-4.4,4.8,5.8,67.3,6.1,69.6v0.1
	c0,1.6-0.8,32.6,5.9,39.1c0.4,0.4,1,0.2,1.2-0.3l0,0c0.2-0.6,1.1-0.7,1.4-0.1c1,1.9,2.3,3.6,2.9,1c0.1-0.6,0.9-0.8,1.3-0.4
	c1.3,1.4,3.5,3.2,3.8,0.8c0.1-0.6,0.9-0.9,1.3-0.4c1.9,2.1,5.3,5.1,6.4,1.8c1.4-4.4-5.3-8.7-6.4-17.1c-0.1-0.6,0.4-1,1-0.8
	c2.5,0.8,8.7,2.2,9.4-2.2C1392.4,1084.8,1392.3,1084.6,1392,1084.4z"></path>
<path id="color_x5F_4" fill="#0c1a29" d="M484.4,952.1C484.4,952.1,484.5,952.1,484.4,952.1C484.5,952.1,484.5,952.1,484.4,952.1z
	 M484.7,951.4C484.7,951.5,484.7,951.5,484.7,951.4C484.7,951.5,484.7,951.5,484.7,951.4z M477.5,978.8l7-26.6l0,0l0,0L477.5,978.8
	c0,0,9.1,16,30.4,18.4c2.7,0.3,5.2,0.5,7.6,0.7c-2.4-0.2-4.9-0.4-7.6-0.7C486.6,994.7,477.5,978.8,477.5,978.8z M565.9,936.7
	L555,921l1.5-11c0,0-42.9-20.2-72.9-19.1c0,0-3.2,3-9.1,9.8c0,0-4,14.6,7.1,23.6c4.3,3.5,5.7,8.5,5.8,13.3
	c13.5,0.1,45.2,1.9,61,15.1c6.8-21.2,6.7-31.7,6.7-31.7L565.9,936.7L565.9,936.7z M522.3,998.2c-1.6,0-3.3,0-5.1-0.1
	C519,998.1,520.7,998.2,522.3,998.2z M1403,997.2c0.4-10.6,1.4-23.4-2.6-39.1c-0.1-0.3,0-0.6,0.3-0.8c4.2-3.2,40.9-30.2,67.2-24
	c0.3,0.1,0.5,0.3,0.6,0.6l2.5,16.2c0,0,1.7,11.7,3.6,24.5c0.1,0.4-0.2,0.8-0.7,0.9c-12.8,1.2-53.4,6.1-69.5,22.2
	C1403.8,998.3,1403,997.9,1403,997.2z M896.1,872v251l326,188.2v-251L896.1,872z M625.5,1270.4L997.2,1485l185.8-107.3L811.5,1163
	L625.5,1270.4z M1141.8,1282.4l-47,27.2l-176.5-101.9l47-27.2L1141.8,1282.4z"></path>
<path id="color_x5F_3" fill="#271d1d" d="M487.3,937.6c13.5,0.1,45.2,1.9,61,15.1c-0.1,0.4-0.3,0.9-0.4,1.3c-7.2,22.1,0,31.9,0,31.9
	c-5.7,11.9-18.7,13.7-40,11.2s-30.4-18.4-30.4-18.4l7-26.6C484.4,952.1,487.5,945.1,487.3,937.6z M585.4,908.1
	c-2.3-3.3-16.5-27.4-16.5-27.4s-0.1-0.3-0.3-0.8c-2.7,4.8-5.1,11-5.1,11s0.7-1.6-4.4-5.7c-5.1-4.1-12.8,1-19.9-6.6
	s-3.4-15.7-3.4-15.7C529.4,871.6,520,873,520,873c0.8-1,1.5-2.2,2.2-3.3c-0.6,0.1-1.1,0.2-1.7,0.3c-8.1,0.5-8.2-8.3-8.2-10.5
	c0-2.3-0.2-9-0.2-8.7c0,0-6.8-0.3-13.1,0.1c0.5,8.8,6.6,22.8,6.6,22.8c-12.6-10.2-15.2-20.8-15.2-20.8s-5.5,6.6-3.8,16.5
	c1.6,10-4.6,16.4-4.6,16.4c0.1-1.2,0.1-2.3-0.1-3.2c-0.1,0.3-0.2,0.5-0.2,0.5s-4.8,9.6-11.5,12.3l4.2,5.5c5.9-6.8,9.1-9.8,9.1-9.8
	c30-1,72.9,19.1,72.9,19.1l-1.5,11l10.9,15.7c0,0,28-11.7,28.4-21.6C594.3,915.2,587.8,911.3,585.4,908.1z M1183,1377.7v15.6
	l-185.8,107.3L625.5,1286v-15.6L997.2,1485L1183,1377.7z M900.8,825.3l-27.5,16l371.7,214.6V1342l27.5-16v-286.1L900.8,825.3z
	 M969,1182.6l-50.7,25v7.4l176.5,101.9l53.5-30.9L969,1182.6z"></path>
<path id="color_x5F_2" fill="#262626" d="M1400.2,957.9c-0.7,1.8-6.1,15.4-6.6,19.3c0,0.4-0.3,0.6-0.7,0.7c-4.3,0.6-29.2,3.2-33.4-9
	c-0.1-0.2-0.1-0.4,0-0.5c1.2-3.1,12.5-32.6,13.3-35.5c0.8-3.1,6.7-19.7,8.5-20.6c1.8-0.9,32.8-17.2,35.1-18.5c0.1,0,0.2-0.1,0.3-0.1
	c0.9-0.1,5.7-0.3,6,1.5c0.3,2,32.4,24.2,21-9.4c-0.1-0.4,0.1-0.8,0.5-1c0.2-0.1,0.4-0.1,0.7-0.2c0.1,0,0.3,0,0.4,0
	c1.8,0.6,3.6,0.9,5.5,1c5.5,0.3,9.6-1.7,12.5-5.2c0.1,0,0.3,0,0.4-0.1c0,0,10.5-3.5,10.2,22.2c-0.1,15.2,12.1,27.3,14.4,29.5
	c0.2,0.2,0.3,0.6,0.2,0.9c-1.1,2.4-6.4,12.3-16.9,16.8c-0.5,0.2-1-0.1-1-0.6l-2.3-15.3c0-0.3-0.3-0.6-0.6-0.6
	c-26.9-6.4-64.7,22.1-67.4,24.2C1400.3,957.6,1400.2,957.7,1400.2,957.9z M1479.8,1006.5c-0.2-0.7-0.5-2-0.8-3.7
	c0-0.2-0.1-0.4-0.1-0.5c-0.4-2.4-1-5.4-1.5-8.9c-0.1-0.5-0.2-1.1-0.3-1.6c-0.4-2.6-0.9-5.4-1.3-8.3c-0.1-0.4-0.1-0.8-0.2-1.2
	c-0.2-1.2-0.4-2.5-0.6-3.7c-0.1-0.7-0.2-1.4-0.3-2.1c-0.4-0.3-0.6-0.5-0.9-0.8c-13.1,1.2-55.5,6.3-70.7,23.5
	c-0.1,0.1-0.2,0.3-0.2,0.5c0,0.6,0,1.2,0,1.7c0,0.7,0,1.3,0,1.9c0,0.8,0,1.7,0,2.5c0.4,11.3-4.8,33.9-5.7,37.7
	c-0.1,0.3,0.1,0.6,0.3,0.8c3.4,2.1,24.7,14,51.4,7.4c29.2-7.3,38.4-21.3,38-21.3C1486.5,1030.3,1481.6,1012.9,1479.8,1006.5z
	 M873.3,841.3v286.1L1245,1342v-286.1L873.3,841.3z M1222.1,1311.2l-326-188.2V872l326,188.2V1311.2z"></path>
<path id="color_x5F_1" fill="#f7c469" d="M477.8,1004.7c0,0,28.4,30,75.9,4.4c0,0,15.3,20.8,7.6,53c-7.6,32.2-2.2,43.7-2.2,43.7
	s-9.3,5.5-34.4-13.7c-25.1-19.1-26.8,8.7-42.6,2.2c-15.8-6.6-24-15.3-24-15.3L477.8,1004.7z M497.7,774.6c0,0-15.4,8.1-16.5,24.3
	s6.8,13.1-5.1,29.4c-11.9,16.2-13.9,26.1-8.9,36.2c5.1,10.1,15.7,9.8,14.7,21.3c0,0,6.3-6.4,4.6-16.4c-1.6-10,3.8-16.5,3.8-16.5
	s2.6,10.5,15.2,20.8c0,0-8.6-19.8-6.1-27.2c0,0-8.7-4-10.2-14.8s-0.9-25.2-0.9-25.2s6.3-6.8,6.1-14.3c0,0,14.2,25.3,38.2,24.7
	c0,0,1.1,38.2-12.6,56.1c0,0,9.4-1.4,15.8-10.1c0,0-3.7,8.2,3.4,15.7c7.1,7.5,14.9,2.5,19.9,6.6c5.1,4.1,4.4,5.7,4.4,5.7
	s3.8-10.1,7.4-14.5c3.5-4.4,6.1-12.8,4.9-17.5s0.5-14.7-10.1-25.1c-10.6-10.4-4.8-26.3-4.8-26.3s3.8-16.5-0.7-24.6
	s-16.7-11.6-33-17.6C510.9,759.1,497.7,774.6,497.7,774.6z M1471.3,827.1c-0.3,0.2-0.4,0.6-0.3,0.9c3.2,9.4-1.3,25.3-1.1,18.1
	c0.1-5.1-1.7-10.5-3.4-13.8c-0.2-0.4-0.8-0.5-1.1-0.2c-2.4,1.8-6.6,3.5-13.8,2.2c-0.2,0-0.4,0-0.5,0.1c-1.4,1-9,5.6-20.1,2.3
	c-0.5-0.1-0.9,0.2-1,0.6c-0.2,1.7-1.2,5.4-5.7,7c-5,1.7-1.3,9.4,0.1,12c0.3,0.5-0.1,1.1-0.7,1.1c-1.2,0-3.2-0.8-5.4-5.1
	c-3.5-6.8-4.8-5.1-5.2-4.9c-0.4,0.1-6.1-7.4-3.6-13.6c0.1-0.2,0.1-0.4,0-0.6c-0.8-1.4-3.8-7.9,1-13.9c4.4-5.5,8.6-5.2,10.1-4.8
	c0.3,0.1,0.7-0.1,0.8-0.4c1.2-2.4,6.5-11.2,16.3-7.4c0.6,0.2,1.2-0.3,1-0.9c-1.5-4.3-3.6-15.8,12.5-24.6
	c19.7-10.8,26.1,9.8,26.3,10.8c0,0,0,0,0,0.1C1477.9,793.1,1487.7,817.2,1471.3,827.1z M1449,1051.6c-21.2,5.3-38.9-1.1-47.1-5.1
	c-0.5-0.2-1,0.1-1.1,0.6c-1.2,14.1-1.8,34.6,1.9,55.1c5.8,32.2,14,12,11.5,44.3c0,0.2-0.1,0.4-0.3,0.5
	c-10.3,8.4-54.4,72.5-64.7,77.2c-0.4,0.2-0.6,0.6-0.4,1c1.3,3.1,6.9,14.4,18.4,17.8c0.2,0.1,0.5,0,0.7-0.1
	c3.2-2.5,31-24.7,42.1-38.4c0.4-0.5,1.3-0.3,1.3,0.5c1.4,45.5,10.4,87.7,10.4,87.7s0.4,14.2,27.8,4.3c0.3-0.1,0.5-0.4,0.5-0.7
	c0.1-8.3,1.9-114,0.5-123.5c0-0.3,0.1-0.6,0.4-0.8c2.3-1.3,12.2-7,12.2-12.4c0-5.6,18.9-67.5,15.5-119.5c0-0.6-0.7-0.9-1.2-0.6
	C1471.4,1043.5,1462.2,1048.3,1449,1051.6z"></path>
</svg>